<svg width="192" height="192" viewBox="0 0 192 192" fill="none" xmlns="http://www.w3.org/2000/svg">
<path d="M52.0642 59.3155C47.2723 59.8963 41.0284 61.4936 38.2694 62.6553L33.4775 64.9786L38.4146 63.9622C47.708 62.2197 64.2617 63.0909 72.2482 65.5595C78.7826 67.7376 82.2676 70.4966 95.9172 84.4366C104.775 93.4395 113.923 101.716 116.392 103.023C122.2 105.927 136.721 109.267 149.644 110.574C162.858 112.026 168.521 114.35 171.426 120.013C172.732 122.626 174.185 124.369 174.62 123.933C176.072 122.336 173.313 114.059 170.264 111.155C165.762 106.944 162.132 105.782 145.579 103.314C123.652 99.9739 117.989 96.7793 104.63 80.2255C91.4157 63.9622 72.829 56.5566 52.0642 59.3155Z" fill="#EA2124"/>
<path d="M169.102 68.7538C166.634 72.5292 162.713 75.5786 156.034 78.7732C146.45 83.565 142.529 87.4857 140.787 94.4557C140.206 97.0694 140.496 98.2311 141.803 98.2311C142.965 98.2311 145.143 98.6667 146.885 99.1023C149.499 99.8284 150.225 98.9571 151.677 93.294C153.129 87.6309 154.436 85.8884 161.987 80.8061C168.667 76.3046 170.845 73.8361 172.007 69.625C172.878 66.7208 173.313 64.1071 173.023 63.8167C172.878 63.5263 170.99 65.8496 169.102 68.7538Z" fill="#EA2124"/>
<path d="M32.0254 70.4974C23.3129 72.9659 16.0524 76.3057 17.0689 77.177C17.3593 77.4674 21.1347 76.7413 25.491 75.5797C36.8173 72.5303 58.0177 72.5303 65.5685 75.5797C69.344 77.177 76.1688 82.6949 83.4292 90.2457C98.9665 106.364 103.468 109.558 112.035 111.156C121.909 113.043 122.635 111.737 114.359 107.526C109.567 105.202 102.597 98.9582 93.1581 88.7936C81.3963 76.1605 77.9113 73.2563 71.0865 70.7878C61.2123 67.0124 44.3681 66.8672 32.0254 70.4974Z" fill="#EA2124"/>
<path d="M162.86 68.8993C162.424 69.6254 158.939 71.3679 155.164 72.6748C140.062 78.1927 137.013 79.9352 132.802 86.1792C128.155 92.8587 128.155 94.456 132.947 95.7629C135.27 96.3438 136.287 95.6177 137.448 92.8587C140.207 85.4531 144.709 81.0969 153.857 76.7406C162.714 72.5296 166.054 69.9158 164.457 68.3185C164.021 67.8829 163.295 68.1733 162.86 68.8993Z" fill="#EA2124"/>
<path d="M130.042 78.4836C123.363 82.9851 119.297 87.4865 120.604 89.3742C122.346 92.4236 124.96 90.6811 131.204 82.8398C137.884 74.2725 137.738 73.4013 130.042 78.4836Z" fill="#EA2124"/>
<path d="M40.3031 79.2083C32.4618 81.2412 33.1878 82.2577 42.1908 82.2577C57.2924 82.2577 61.0679 84.2906 77.0408 100.554C90.1096 113.913 92.4329 115.656 99.9837 117.834C105.792 119.576 110.148 119.867 113.779 119.141L119.151 118.124L111.891 117.108C100.855 115.51 96.7892 112.751 84.4464 98.2306C76.46 88.9373 71.2325 84.0002 67.0214 82.1125C59.761 78.9179 46.9826 77.611 40.3031 79.2083Z" fill="#EA2124"/>
</svg>
