<svg width="390" height="149" viewBox="0 0 390 149" fill="none" xmlns="http://www.w3.org/2000/svg">
<path d="M102.232 2.12738V93.6926H122.797V114.383H102.232V146.542H77.9658V114.383H5.37549L0.646484 96.3572L80.6407 2.12943H102.234L102.232 2.12738ZM77.9658 36.9515L30.6675 93.6926H77.9658V36.9515Z" fill="#1E1919"/>
<path d="M255.024 103.628C252.008 112.711 247.756 120.599 242.274 127.288C236.789 133.981 230.174 139.271 222.429 143.163C214.682 147.054 206.081 149 196.621 149C187.161 149 178.591 147.085 170.916 143.265C163.236 139.443 156.657 134.186 151.175 127.493C145.689 120.804 141.474 112.949 138.528 103.935C135.578 94.9215 134.107 85.2933 134.107 75.0527C134.107 64.8121 135.615 55.1511 138.631 46.0677C141.645 36.9884 145.895 29.1011 151.381 22.4078C156.862 15.7187 163.479 10.4243 171.224 6.53288C178.967 2.64145 187.572 0.69574 197.032 0.69574C206.492 0.69574 215.058 2.61073 222.737 6.43047C230.413 10.2564 236.994 15.5139 242.478 22.203C247.959 28.8963 252.174 36.7467 255.125 45.7605C258.071 54.7743 259.545 64.4004 259.545 74.6431C259.545 84.8857 258.034 94.5487 255.022 103.628H255.024ZM230.861 54.977C229.146 48.6975 226.677 43.2331 223.457 38.59C220.233 33.949 216.361 30.2624 211.838 27.5281C207.315 24.798 202.24 23.4319 196.621 23.4319C191.002 23.4319 185.96 24.7632 181.506 27.4257C177.049 30.0883 173.245 33.7094 170.093 38.2828C166.937 42.8604 164.505 48.2879 162.792 54.5674C161.075 60.851 160.222 67.5422 160.222 74.6431C160.222 81.7439 161.077 88.6071 162.792 94.8211C164.505 101.037 166.972 106.497 170.196 111.208C173.416 115.919 177.291 119.607 181.815 122.27C186.338 124.933 191.409 126.264 197.032 126.264C202.655 126.264 207.691 124.933 212.146 122.27C216.6 119.607 220.404 115.956 223.56 111.311C226.712 106.669 229.144 101.242 230.861 95.0259C232.574 88.814 233.431 82.1556 233.431 75.0547C233.431 67.9539 232.574 61.2627 230.861 54.9791V54.977Z" fill="#1E1919"/>
<path d="M369.359 2.12738V93.6926H389.924V114.383H369.359V146.542H345.093V114.383H272.502L267.773 96.3572L347.768 2.12943H369.361L369.359 2.12738ZM345.093 36.9515L297.794 93.6926H345.093V36.9515Z" fill="#1E1919"/>
</svg>
