<svg width="512" height="512" viewBox="0 0 512 512" fill="none" xmlns="http://www.w3.org/2000/svg">
<path d="M134.803 167.559C121.583 169.161 104.359 173.567 96.7475 176.772L83.5283 183.181L97.1481 180.377C122.785 175.57 168.451 177.974 190.483 184.783C208.51 190.792 218.123 198.403 255.778 236.859C280.213 261.695 305.45 284.528 312.26 288.133C328.283 296.145 368.341 305.358 403.993 308.964C440.446 312.969 456.068 319.379 464.08 335.001C467.685 342.212 471.691 347.019 472.893 345.817C476.899 341.411 469.288 318.577 460.875 310.566C448.457 298.949 438.443 295.744 392.777 288.934C332.289 279.721 316.666 270.908 279.813 225.242C243.36 180.377 192.086 159.947 134.803 167.559Z" fill="#EA2124"/>
<path d="M457.672 193.596C450.862 204.011 440.046 212.423 421.619 221.236C395.181 234.455 384.365 245.27 379.558 264.498C377.956 271.709 378.757 274.913 382.362 274.913C385.567 274.913 391.576 276.115 396.383 277.317C403.593 279.32 405.596 276.916 409.602 261.294C413.608 245.671 417.213 240.864 438.043 226.844C456.47 214.426 462.479 207.616 465.683 195.999C468.087 187.987 469.288 180.777 468.487 179.976C468.087 179.175 462.879 185.584 457.672 193.596Z" fill="#EA2124"/>
<path d="M79.5226 198.405C55.4878 205.215 35.4587 214.428 38.2628 216.832C39.064 217.633 49.4791 215.63 61.4965 212.425C92.7418 204.013 151.227 204.013 172.057 212.425C182.472 216.832 201.299 232.054 221.328 252.884C264.19 297.348 276.608 306.161 300.243 310.568C327.482 315.775 329.485 312.17 306.652 300.553C293.433 294.144 274.205 276.919 248.167 248.878C215.72 214.028 206.106 206.016 187.279 199.206C160.039 188.791 113.572 188.39 79.5226 198.405Z" fill="#EA2124"/>
<path d="M440.45 193.998C439.248 196.001 429.634 200.808 419.219 204.413C377.558 219.635 369.146 224.442 357.529 241.667C344.711 260.094 344.711 264.5 357.93 268.105C364.339 269.708 367.143 267.705 370.348 260.094C377.959 239.664 390.377 227.647 415.613 215.629C440.049 204.012 449.262 196.802 444.856 192.395C443.654 191.194 441.651 191.995 440.45 193.998Z" fill="#EA2124"/>
<path d="M349.918 220.436C331.491 232.854 320.275 245.272 323.88 250.48C328.687 258.892 335.897 254.085 353.122 232.454C371.549 208.82 371.148 206.416 349.918 220.436Z" fill="#EA2124"/>
<path d="M102.357 222.437C80.7261 228.045 82.729 230.849 107.565 230.849C149.225 230.849 159.641 236.457 203.704 281.322C239.757 318.176 246.166 322.982 266.996 328.991C283.019 333.798 295.037 334.599 305.051 332.596L319.873 329.792L299.844 326.988C269.4 322.582 258.183 314.971 224.134 274.913C202.102 249.276 187.681 235.656 176.064 230.448C156.035 221.636 120.784 218.03 102.357 222.437Z" fill="#EA2124"/>
</svg>
