<svg width="43" height="44" viewBox="0 0 43 44" fill="none" xmlns="http://www.w3.org/2000/svg">
<rect y="0.449219" width="43" height="43" rx="21.5" fill="#EA2124"/>
<path d="M25.0391 27.0468C24.8402 27.0468 24.6494 26.9678 24.5087 26.8271C24.3681 26.6864 24.2891 26.4957 24.2891 26.2968V19.1758C24.2891 18.9769 24.3681 18.7861 24.5087 18.6455C24.6494 18.5048 24.8402 18.4258 25.0391 18.4258C25.238 18.4258 25.4287 18.5048 25.5694 18.6455C25.71 18.7861 25.7891 18.9769 25.7891 19.1758V26.2968C25.7891 26.4957 25.71 26.6864 25.5694 26.8271C25.4287 26.9678 25.238 27.0468 25.0391 27.0468Z" fill="white"/>
<path d="M18.2109 25.9061C18.012 25.9061 17.8213 25.8271 17.6806 25.6865C17.5399 25.5458 17.4609 25.3551 17.4609 25.1561V18.0352C17.4609 17.8362 17.5399 17.6455 17.6806 17.5048C17.8213 17.3642 18.012 17.2852 18.2109 17.2852C18.4098 17.2852 18.6006 17.3642 18.7413 17.5048C18.8819 17.6455 18.9609 17.8362 18.9609 18.0352V25.1561C18.9609 25.3551 18.8819 25.5458 18.7413 25.6865C18.6006 25.8271 18.4098 25.9061 18.2109 25.9061Z" fill="white"/>
<path d="M25.109 31.5873C24.8531 31.5871 24.5993 31.5421 24.359 31.4542L18.627 29.3693C18.4587 29.3072 18.2728 29.3133 18.109 29.3863L14.521 30.9863C14.248 31.1076 13.949 31.1587 13.6512 31.1351C13.3533 31.1115 13.0661 31.0138 12.8157 30.8509C12.5652 30.6881 12.3594 30.4653 12.2169 30.2027C12.0745 29.9401 11.9999 29.646 12 29.3473V16.6783C12.0005 16.1622 12.1504 15.6574 12.4314 15.2246C12.7125 14.7918 13.1128 14.4496 13.584 14.2393L17.499 12.5003C18.0176 12.2666 18.6072 12.2457 19.141 12.4423L24.873 14.5273C25.0412 14.5898 25.2272 14.5837 25.391 14.5103L28.979 12.9103C29.252 12.789 29.551 12.7378 29.8488 12.7615C30.1466 12.7851 30.4338 12.8828 30.6843 13.0456C30.9348 13.2084 31.1406 13.4313 31.283 13.6939C31.4255 13.9565 31.5001 14.2505 31.5 14.5493V27.2143C31.4995 27.7302 31.3497 28.2349 31.0686 28.6676C30.7875 29.1002 30.3872 29.4422 29.916 29.6522L26.001 31.3913C25.7207 31.5186 25.4168 31.5854 25.109 31.5873ZM24.87 30.0442C25.0389 30.105 25.2247 30.0986 25.389 30.0263L29.305 28.2862C29.5112 28.1943 29.6864 28.0446 29.8094 27.8553C29.9323 27.6659 29.9979 27.445 29.998 27.2193V14.5543C29.9983 14.5053 29.9863 14.4571 29.9631 14.414C29.9399 14.371 29.9062 14.3344 29.8652 14.3077C29.8242 14.281 29.7771 14.2651 29.7283 14.2613C29.6795 14.2576 29.6306 14.2662 29.586 14.2863L25.999 15.8803C25.4806 16.1122 24.8922 16.1326 24.359 15.9373L18.625 13.8523C18.4565 13.791 18.2708 13.7975 18.107 13.8703L14.191 15.6103C13.9848 15.7025 13.8096 15.8524 13.6867 16.0419C13.5637 16.2314 13.4982 16.4524 13.498 16.6783V29.3422C13.4976 29.3911 13.5095 29.4393 13.5326 29.4824C13.5556 29.5255 13.5892 29.5621 13.6301 29.5889C13.671 29.6157 13.718 29.6318 13.7667 29.6357C13.8154 29.6396 13.8643 29.6312 13.909 29.6113L17.497 28.0113C18.0157 27.7779 18.6053 27.7574 19.139 27.9542L24.87 30.0442Z" fill="white"/>
</svg>
