<svg width="24" height="24" viewBox="0 0 24 24" fill="none" xmlns="http://www.w3.org/2000/svg">
<path fill-rule="evenodd" clip-rule="evenodd" d="M7.35907 3.3689C7.77328 3.3689 8.10907 3.70468 8.10907 4.1189V5.62987C8.10907 6.04408 7.77328 6.37987 7.35907 6.37987C6.94485 6.37987 6.60907 6.04408 6.60907 5.62987V4.1189C6.60907 3.70468 6.94485 3.3689 7.35907 3.3689ZM10.5838 3.3689C10.9981 3.3689 11.3338 3.70468 11.3338 4.1189V5.62987C11.3338 6.04408 10.9981 6.37987 10.5838 6.37987C10.1696 6.37987 9.83385 6.04408 9.83385 5.62987V4.1189C9.83385 3.70468 10.1696 3.3689 10.5838 3.3689ZM13.8086 3.3689C14.2228 3.3689 14.5586 3.70468 14.5586 4.1189V5.62987C14.5586 6.04408 14.2228 6.37987 13.8086 6.37987C13.3944 6.37987 13.0586 6.04408 13.0586 5.62987V4.1189C13.0586 3.70468 13.3944 3.3689 13.8086 3.3689ZM6.21245 9.21618C5.54273 9.21618 5 9.75848 5 10.4286V13.5085C5 16.5851 7.47149 19.0848 10.5372 19.1305H10.7079C13.7736 19.0848 16.2451 16.5851 16.2451 13.5085V10.4286C16.2451 9.75848 15.7024 9.21618 15.0327 9.21618H6.21245ZM10.7187 20.6305H17.9198C18.334 20.6305 18.6698 20.2947 18.6698 19.8805C18.6698 19.4662 18.334 19.1305 17.9198 19.1305H14.9961C16.2308 18.1685 17.1404 16.8088 17.5322 15.2439H18.1864C19.7405 15.2439 21 13.9844 21 12.4302C21 10.8761 19.7405 9.61659 18.1864 9.61659H17.6216C17.2765 8.51479 16.2477 7.71618 15.0327 7.71618H6.21245C4.71474 7.71618 3.5 8.92963 3.5 10.4286V13.5085C3.5 15.7934 4.57605 17.8271 6.249 19.1305H4.42653C4.01231 19.1305 3.67653 19.4662 3.67653 19.8805C3.67653 20.2947 4.01231 20.6305 4.42653 20.6305H10.5265C10.5584 20.6309 10.5905 20.6311 10.6226 20.6311C10.6546 20.6311 10.6867 20.6309 10.7187 20.6305ZM17.7451 11.1166V13.5085C17.7451 13.5873 17.7438 13.6657 17.7413 13.7439H18.1864C18.9121 13.7439 19.5 13.156 19.5 12.4302C19.5 11.7045 18.9121 11.1166 18.1864 11.1166H17.7451Z" fill="#27272A"/>
</svg>
