<svg width="48" height="48" viewBox="0 0 48 48" fill="none" xmlns="http://www.w3.org/2000/svg">
<rect x="0.5" y="0.5" width="47" height="47" rx="23.5" fill="white"/>
<rect x="0.5" y="0.5" width="47" height="47" rx="23.5" stroke="#D8111F"/>
<path fill-rule="evenodd" clip-rule="evenodd" d="M26.3593 23.1331C26.7498 22.7425 27.3829 22.7425 27.7734 23.1331L31.0864 26.446L34.3988 23.1331C34.7892 22.7425 35.4224 22.7425 35.8129 23.1331C36.2034 23.5235 36.2036 24.1567 35.813 24.5472L31.7937 28.5673C31.6061 28.7549 31.3517 28.8603 31.0865 28.8603C30.8213 28.8603 30.5669 28.7549 30.3794 28.5673L26.3593 24.5473C25.9688 24.1568 25.9688 23.5236 26.3593 23.1331Z" fill="#D8111F"/>
<path fill-rule="evenodd" clip-rule="evenodd" d="M16.9147 18.9567C17.1799 18.9567 17.4343 19.0621 17.6218 19.2497L21.6412 23.2697C22.0317 23.6603 22.0316 24.2935 21.6411 24.684C21.2505 25.0745 20.6174 25.0744 20.2269 24.6839L16.9146 21.3709L13.6016 24.6839C13.2111 25.0744 12.5779 25.0744 12.1874 24.6839C11.7969 24.2933 11.7969 23.6603 12.1874 23.2697L16.2075 19.2496C16.3951 19.062 16.6494 18.9567 16.9147 18.9567Z" fill="#D8111F"/>
<path fill-rule="evenodd" clip-rule="evenodd" d="M16.9939 15.0608C18.3867 12.6366 21.0042 11.0003 24.0051 11.0003C28.4682 11.0003 32.0862 14.6183 32.0862 19.0813V27.8341C32.0862 28.3864 31.6384 28.8341 31.0862 28.8341C30.5338 28.8341 30.0862 28.3864 30.0862 27.8341V19.0813C30.0862 15.7229 27.3635 13.0003 24.0051 13.0003C21.7491 13.0003 19.7788 14.2283 18.7281 16.0571C18.453 16.536 17.8417 16.7011 17.3628 16.426C16.884 16.1509 16.7188 15.5396 16.9939 15.0608Z" fill="#D8111F"/>
<path fill-rule="evenodd" clip-rule="evenodd" d="M16.9238 19.0728C17.4761 19.0728 17.9238 19.5205 17.9238 20.0728V28.9196C17.9238 32.278 20.6464 35.0005 24.0048 35.0005C26.1967 35.0005 28.1187 33.8416 29.19 32.0983C29.4792 31.6277 30.0951 31.4807 30.5656 31.7699C31.0361 32.0589 31.1832 32.6748 30.894 33.1453C29.474 35.456 26.9203 37.0005 24.0048 37.0005C19.5418 37.0005 15.9238 33.3825 15.9238 28.9196V20.0728C15.9238 19.5205 16.3715 19.0728 16.9238 19.0728Z" fill="#D8111F"/>
</svg>
