<svg xmlns="http://www.w3.org/2000/svg" width="32" height="32" viewBox="0 0 32 32" fill="none">
<path d="M8.91564 11.0952C8.10781 11.1932 7.05518 11.4624 6.59006 11.6583L5.78223 12.05L6.61454 11.8786C8.18125 11.5848 10.9719 11.7317 12.3183 12.1479C13.4199 12.5151 14.0074 12.9802 16.3085 15.3302C17.8018 16.848 19.344 18.2433 19.7602 18.4637C20.7394 18.9533 23.1874 19.5163 25.3661 19.7366C27.5937 19.9814 28.5484 20.3731 29.038 21.3278C29.2584 21.7684 29.5032 22.0622 29.5766 21.9888C29.8214 21.7195 29.3563 20.3241 28.8422 19.8345C28.0833 19.1246 27.4713 18.9288 24.6806 18.5126C20.9842 17.9496 20.0295 17.411 17.7773 14.6203C15.5497 11.8786 12.4163 10.6301 8.91564 11.0952Z" fill="#EA2124"/>
<path d="M28.6464 12.6867C28.2302 13.3231 27.5692 13.8372 26.4432 14.3758C24.8275 15.1836 24.1666 15.8445 23.8728 17.0196C23.7749 17.4602 23.8238 17.6561 24.0442 17.6561C24.24 17.6561 24.6072 17.7295 24.9009 17.8029C25.3416 17.9253 25.464 17.7785 25.7088 16.8237C25.9536 15.869 26.1739 15.5753 27.4468 14.7185C28.5729 13.9596 28.9401 13.5434 29.136 12.8335C29.2828 12.3439 29.3563 11.9033 29.3073 11.8543C29.2828 11.8054 28.9646 12.1971 28.6464 12.6867Z" fill="#EA2124"/>
<path d="M5.53748 12.9809C4.06869 13.397 2.8447 13.9601 3.01606 14.1069C3.06502 14.1559 3.70149 14.0335 4.43589 13.8377C6.34531 13.3236 9.91936 13.3236 11.1923 13.8377C11.8288 14.1069 12.9793 15.0372 14.2033 16.3101C16.8227 19.0274 17.5815 19.5659 19.0259 19.8352C20.6905 20.1535 20.8129 19.9331 19.4175 19.2232C18.6097 18.8315 17.4347 17.7789 15.8435 16.0653C13.8606 13.9356 13.2731 13.446 12.1225 13.0298C10.4579 12.3934 7.61826 12.3689 5.53748 12.9809Z" fill="#EA2124"/>
<path d="M27.5942 12.7113C27.5208 12.8337 26.9332 13.1275 26.2968 13.3478C23.7509 14.278 23.2368 14.5718 22.5269 15.6244C21.7435 16.7505 21.7435 17.0198 22.5514 17.2401C22.943 17.338 23.1144 17.2156 23.3102 16.7505C23.7753 15.502 24.5342 14.7676 26.0764 14.0332C27.5697 13.3233 28.1327 12.8827 27.8635 12.6134C27.79 12.54 27.6676 12.5889 27.5942 12.7113Z" fill="#EA2124"/>
<path d="M22.0615 14.3267C20.9354 15.0856 20.25 15.8444 20.4703 16.1627C20.764 16.6768 21.2047 16.383 22.2573 15.0611C23.3834 13.6168 23.3589 13.4699 22.0615 14.3267Z" fill="#EA2124"/>
<path d="M6.93291 14.4487C5.611 14.7914 5.7334 14.9627 7.25115 14.9627C9.79705 14.9627 10.4335 15.3055 13.1263 18.0472C15.3295 20.2993 15.7212 20.5931 16.9941 20.9603C17.9733 21.254 18.7077 21.303 19.3197 21.1806L20.2254 21.0092L19.0015 20.8379C17.141 20.5686 16.4556 20.1035 14.3748 17.6555C13.0284 16.0888 12.1471 15.2565 11.4372 14.9383C10.2132 14.3997 8.05898 14.1794 6.93291 14.4487Z" fill="#EA2124"/>
</svg>