<svg width="24" height="24" viewBox="0 0 24 24" fill="none" xmlns="http://www.w3.org/2000/svg">
<path opacity="0.5" fill-rule="evenodd" clip-rule="evenodd" d="M11.8458 8.53408C12.2045 8.74118 12.3274 9.19988 12.1203 9.5586L11.3363 10.9165L12.4168 13.8098C12.5617 14.1978 12.3646 14.6298 11.9766 14.7748C11.5886 14.9197 11.1565 14.7226 11.0116 14.3345L10.364 12.6006L9.24436 14.5399L10.0521 15.0062C10.4108 15.2133 10.5337 15.672 10.3266 16.0308C10.1195 16.3895 9.66082 16.5124 9.3021 16.3053L6.38685 14.6222C6.02813 14.4151 5.90522 13.9564 6.11232 13.5977C6.31943 13.2389 6.77812 13.116 7.13684 13.3231L7.94532 13.7899L9.06506 11.8505L7.23941 12.1566C6.8309 12.2251 6.4442 11.9495 6.37569 11.541C6.30718 11.1325 6.5828 10.7458 6.99131 10.6773L10.0373 10.1665L10.8213 8.8086C11.0284 8.44988 11.4871 8.32697 11.8458 8.53408Z" fill="#27272A"/>
<path d="M11.1779 4.71094H10.7C7.30589 4.71094 5.60883 4.71094 4.55441 5.76535C3.5 6.81977 3.5 8.51683 3.5 11.9109V12.0896C3.5 15.4837 3.5 17.1808 4.55441 18.2352C5.60883 19.2896 7.30589 19.2896 10.7 19.2896H11.1766C11.5014 19.2896 11.6637 19.2896 11.7652 19.2211C11.8666 19.1525 11.9528 18.9386 12.125 18.5106C12.4176 17.7837 13.1087 17.2721 13.9453 17.2728H14.0048C14.7157 17.2978 15.3248 17.6999 15.6456 18.2802C15.8838 18.7111 16.0029 18.9266 16.0374 18.9722C16.2322 19.2298 16.242 19.2356 16.5617 19.2815C16.6183 19.2896 16.7244 19.2896 16.9367 19.2896C17.832 19.2896 18.2797 19.2896 18.651 19.2104C20.0397 18.9142 21.1246 17.8293 21.4208 16.4406C21.5 16.0693 21.5 15.6216 21.5 14.7263V9.28C21.5 8.37931 21.5 7.92896 21.4198 7.55549C21.1226 6.17037 20.0406 5.08837 18.6554 4.79109C18.282 4.71094 17.8316 4.71094 16.9309 4.71094C16.7213 4.71094 16.6165 4.71094 16.5588 4.71941C16.2473 4.76512 16.2169 4.78341 16.0304 5.03704C15.9958 5.08408 15.889 5.28512 15.6754 5.68721C15.345 6.30917 14.704 6.73018 13.9435 6.72956C13.1053 6.72956 12.4167 6.21926 12.1264 5.49224C11.955 5.06315 11.8693 4.8486 11.7677 4.77977C11.6661 4.71094 11.5033 4.71094 11.1779 4.71094Z" stroke="#27272A" stroke-width="1.5" stroke-linecap="round" stroke-linejoin="round"/>
<g opacity="0.5">
<path d="M18.1211 13.8359H21.5H18.1211Z" fill="#27272A"/>
<path d="M18.1211 13.8359H21.5" stroke="#27272A" stroke-width="1.5" stroke-linecap="round" stroke-linejoin="round"/>
</g>
<g opacity="0.5">
<path d="M16.543 10.1797H21.5H16.543Z" fill="#27272A"/>
<path d="M16.543 10.1797H21.5" stroke="#27272A" stroke-width="1.5" stroke-linecap="round" stroke-linejoin="round"/>
</g>
</svg>
