<svg width="88" height="187" viewBox="0 0 88 187" fill="none" xmlns="http://www.w3.org/2000/svg">
<path d="M69.2125 164.069C69.2125 164.069 68.5299 159.475 69.0028 158.459C69.4757 157.443 81.0844 156.902 81.0576 157.76C81.0309 158.619 81.7423 168.073 81.4915 169.551C81.2386 171.03 69.5723 169.111 69.5723 169.111L69.2125 164.067V164.069Z" fill="#F5BF99"/>
<path d="M67.7008 174.416C68.3834 175.262 69.7425 177.461 70.3654 177.631C70.9884 177.801 70.9884 179.266 70.8178 181.017C70.6471 182.764 71.046 184.458 73.4229 185.474C75.8018 186.487 84.8629 187.956 86.6743 184.175C87.1555 183.173 87.1349 182.137 86.843 181.046C86.0329 178.018 83.1338 174.582 83.0515 170.352C82.9816 166.852 82.7246 165.478 81.7685 164.714C81.6822 164.642 81.5896 164.577 81.491 164.519C80.8906 164.149 80.0599 163.921 78.9167 163.581C76.7167 162.926 74.3974 164.138 72.7443 164.935C72.364 165.119 72.0185 165.281 71.7183 165.394C71.3071 165.547 70.9781 165.609 70.7602 165.504C69.6849 164.996 69.2881 163.473 68.7226 164.206C68.7226 164.206 67.6473 168.753 67.7028 169.554C67.7192 169.767 67.6761 170.147 67.6226 170.61C67.4664 171.895 67.1991 173.797 67.7008 174.418V174.416Z" fill="#191716"/>
<path opacity="0.5" d="M72.7428 175.712C72.7428 175.712 71.8792 167.888 72.7428 164.935C72.3624 165.117 72.017 165.279 71.7168 165.392C71.723 165.539 72.0684 174.539 72.7428 175.712Z" fill="black"/>
<path opacity="0.5" d="M81.9159 175.008C81.9159 175.008 82.9789 173.746 81.7658 164.714C81.6795 164.642 81.587 164.577 81.4883 164.519C81.4883 164.519 82.3683 172.609 81.9159 175.008Z" fill="black"/>
<path opacity="0.5" d="M72.7422 175.712C72.7422 175.712 79.4245 179.098 81.9165 175.008C81.9165 175.008 79.7637 178.364 72.7422 175.712Z" fill="black"/>
<path opacity="0.5" d="M67.7008 174.416C68.3834 175.262 69.7425 177.461 70.3654 177.631C70.9884 177.801 70.9884 179.266 70.8178 181.017C70.6471 182.764 71.046 184.458 73.4229 185.474C75.8018 186.487 84.8629 187.956 86.6743 184.175C87.1555 183.173 87.1349 182.137 86.843 181.046C86.2714 184.007 84.6902 184.4 78.633 184.56C72.5737 184.72 71.6114 180.734 71.7183 179.718C71.8232 178.704 71.8355 175.77 71.157 175.008C70.4868 174.26 67.709 170.719 67.6226 170.61C67.4664 171.892 67.1991 173.795 67.7008 174.418V174.416Z" fill="black"/>
<path d="M29.0084 162.414C29.0084 162.414 29.6911 157.82 29.2182 156.804C28.7453 155.788 17.1366 155.247 17.1633 156.106C17.19 156.964 16.4786 166.418 16.7294 167.897C16.9823 169.375 28.6486 167.456 28.6486 167.456L29.0084 162.412V162.414Z" fill="#F5BF99"/>
<path d="M30.5204 172.761C29.8378 173.607 28.4787 175.806 27.8557 175.976C27.2327 176.146 27.2327 177.611 27.4034 179.362C27.574 181.109 27.1752 182.803 24.7983 183.819C22.4194 184.832 13.3582 186.301 11.5468 182.52C11.0657 181.519 11.0862 180.482 11.3782 179.391C12.1883 176.364 15.0874 172.927 15.1696 168.697C15.2396 165.197 15.4966 163.823 16.4526 163.059C16.539 162.987 16.6315 162.922 16.7302 162.864C17.3306 162.494 18.1613 162.266 19.3044 161.926C21.5045 161.271 23.8237 162.483 25.4768 163.28C25.8572 163.464 26.2026 163.626 26.5028 163.739C26.914 163.893 27.243 163.954 27.4609 163.85C28.5363 163.342 28.9331 161.818 29.4985 162.551C29.4985 162.551 30.5739 167.098 30.5184 167.899C30.5019 168.112 30.5451 168.493 30.5985 168.955C30.7548 170.24 31.0221 172.142 30.5204 172.763V172.761Z" fill="#191716"/>
<path opacity="0.5" d="M25.4766 174.057C25.4766 174.057 26.3401 166.234 25.4766 163.28C25.8569 163.462 26.2024 163.624 26.5025 163.737C26.4964 163.884 26.151 172.884 25.4766 174.057Z" fill="black"/>
<path opacity="0.5" d="M16.302 173.353C16.302 173.353 15.239 172.091 16.4521 163.059C16.5385 162.987 16.631 162.922 16.7297 162.864C16.7297 162.864 15.8497 170.954 16.302 173.353Z" fill="black"/>
<path opacity="0.5" d="M25.477 174.057C25.477 174.057 18.7947 177.443 16.3027 173.353C16.3027 173.353 18.4555 176.71 25.477 174.057Z" fill="black"/>
<path opacity="0.5" d="M30.5204 172.761C29.8378 173.607 28.4787 175.806 27.8557 175.976C27.2327 176.146 27.2327 177.611 27.4034 179.362C27.574 181.109 27.1752 182.803 24.7983 183.819C22.4194 184.832 13.3582 186.301 11.5468 182.52C11.0657 181.519 11.0862 180.482 11.3782 179.391C11.9498 182.352 13.5309 182.745 19.5882 182.905C25.6475 183.065 26.6097 179.079 26.5028 178.063C26.398 177.05 26.3856 174.115 27.0641 173.353C27.7344 172.605 30.5122 169.064 30.5985 168.955C30.7548 170.238 31.0221 172.14 30.5204 172.763V172.761Z" fill="black"/>
<path d="M82.3872 160.124C81.7806 161.132 68.745 160.618 67.937 160.214C67.1289 159.811 67.0241 130.119 67.4291 123.069C67.462 122.504 67.4517 121.959 67.4024 121.437C67.3798 121.183 67.3489 120.933 67.3099 120.687C66.4422 115.248 61.7152 112.288 61.5672 112.198C61.5672 112.198 61.5651 112.198 61.5631 112.196H36.0922C34.5892 113.693 33.5674 115.145 32.9238 117.402C32.8457 117.669 32.7758 117.947 32.71 118.24C32.1343 120.784 31.9513 124.296 32.0479 129.716C32.2515 140.992 32.0479 157.506 31.6428 158.512C31.2399 159.52 15.1551 159.006 14.9536 157.597C14.7521 156.187 14.8652 121.46 15.0667 108.771C15.2682 96.0854 23.7598 92.8617 23.7598 92.8617C23.7598 92.8617 53.4765 83.6001 68.0316 90.2442C82.5866 96.8903 84.0033 105.548 84.2048 112.194C84.4083 118.84 82.9917 159.114 82.3851 160.122L82.3872 160.124Z" fill="#2D2A29"/>
<path opacity="0.4" d="M45.5276 112.196H44.7422C44.7422 112.196 44.8306 112.075 44.9704 111.848L45.5255 112.196H45.5276Z" fill="#020202"/>
<path opacity="0.4" d="M48.091 110.916C47.9512 105.048 53.4718 99.5918 53.6425 99.4259C48.4467 103.682 47.4495 109.07 47.4495 109.07C48.0808 102.078 44.8363 99.4955 44.7437 99.4218C48.6668 105.04 45.8355 110.449 44.972 111.846L36.0938 112.194H61.5646C60.8347 111.676 48.091 110.916 48.091 110.916Z" fill="#020202"/>
<path opacity="0.4" d="M45.5269 99.1945C45.5269 99.1945 41.8403 94.6456 37.3457 93.2386C37.3457 93.2386 42.2926 94.2135 45.5269 99.1945Z" fill="#020202"/>
<path opacity="0.4" d="M51.082 100.489C51.082 100.489 53.4733 97.3164 56.5183 96.3783C56.5183 96.3783 52.9675 97.2017 51.082 100.489Z" fill="#020202"/>
<path opacity="0.4" d="M49.3047 97.4618C49.3047 97.4618 53.1085 93.853 58.1109 93.4905C58.1109 93.4905 54.3791 93.6707 49.3047 97.4618Z" fill="#020202"/>
<path opacity="0.4" d="M18.168 108.315C18.168 108.315 22.788 111.557 28.3538 110.093C28.3538 110.093 23.3144 112.395 18.168 108.315Z" fill="#020202"/>
<path opacity="0.4" d="M82.0745 109.669C82.0745 109.669 77.4545 112.911 71.8887 111.446C71.8887 111.446 76.9281 113.748 82.0745 109.669Z" fill="#020202"/>
<path opacity="0.4" d="M70.882 115.95C70.882 115.95 70.3659 119.637 67.4031 121.437C67.3804 121.183 67.3496 120.933 67.3105 120.687C67.3743 120.651 69.4324 119.45 70.8799 115.948L70.882 115.95Z" fill="#020202"/>
<path opacity="0.4" d="M32.9268 117.402C32.8486 117.669 32.7787 117.947 32.7129 118.24C30.7041 117.408 29.857 114.897 29.8262 114.801C30.774 116.683 32.9268 117.4 32.9268 117.4V117.402Z" fill="#020202"/>
<path d="M39.5664 33.2102L39.7515 41.4334L51.1648 46.6541L57.1234 40.3909L56.0624 30.7566L39.5664 33.2102Z" fill="#FFC7A0"/>
<path d="M55.3387 95.3133C55.3387 95.3133 51.7611 97.0788 49.5405 97.4167C47.3178 97.7547 44.5175 99.0532 41.4004 97.5929C38.2854 96.1305 42.2229 83.6636 42.2229 83.6636H53.7452C53.7452 83.6636 57.0062 92.1141 55.3387 95.3154V95.3133Z" fill="white"/>
<path d="M27.134 83.6616C27.134 83.6616 26.513 89.0624 25.9455 89.8223C25.3781 90.5821 23.3322 92.6487 23.762 95.4116C23.762 95.4116 34.2295 92.9866 36.0718 95.4116C37.914 97.8366 41.2511 99.5099 41.3991 98.7644C41.5472 98.0189 42.2216 83.6616 42.2216 83.6616H27.1319H27.134Z" fill="#E19A06"/>
<path d="M53.7461 83.6616C53.7461 83.6616 55.1031 95.8458 55.5308 95.7864C55.9585 95.727 67.3019 92.3374 72.218 94.961C77.1341 97.5847 71.4038 87.7885 70.9391 83.6616H53.7461Z" fill="#E19A06"/>
<path d="M41.4004 41.3945C41.4004 41.3945 48.6625 46.1298 55.5812 40.393V53.4661L53.7452 83.6616H42.2228L41.4004 41.3945Z" fill="white"/>
<path d="M42.2244 83.6616H27.1348L27.4083 78.3774L27.2479 77.4762L24.8443 56.6448C24.8443 56.6448 18.199 37.6219 24.3241 36.3152C26.3596 35.881 28.6193 34.8733 29.783 34.4596C35.6943 32.3644 38.5667 32.647 38.5667 32.647C38.7496 32.01 39.8476 31.7356 39.8476 31.7356C39.8476 31.7356 39.9381 39.2051 41.402 41.3925C42.8659 43.5778 44.2374 48.1328 44.6938 54.2362C45.1523 60.3396 42.2244 83.6595 42.2244 83.6595V83.6616Z" fill="#CB0017"/>
<path d="M70.0942 76.1654L70.9392 83.6615H53.7462C53.7462 83.6615 51.3694 61.7999 51.8258 55.6965C52.2823 49.5931 53.3802 44.7616 54.8442 42.5763C56.3081 40.3909 56.1251 31.7397 56.1251 31.7397C56.1251 31.7397 57.2231 32.0121 57.406 32.6511C57.406 32.6511 63.488 33.7079 68.511 36.6142C73.386 39.4345 74.9918 43.0555 74.9918 43.0555L69.9359 74.7358L69.9441 74.8157L70.0962 76.1675L70.0942 76.1654Z" fill="#CB0017"/>
<path opacity="0.15" d="M40.2021 97.8468C40.2021 97.8468 40.1979 97.8468 40.1938 97.8468C40.165 97.8427 40.1465 97.8161 40.1507 97.7874C40.1589 97.7342 40.2247 90.5596 40.8127 83.0062C41.3761 75.7558 42.7393 68.1778 43.1155 63.7129C43.5679 58.3325 43.1649 53.7918 42.7475 50.9285C42.2252 47.3402 41.374 44.307 40.4118 42.6009C38.5695 39.3362 38.3146 33.2799 38.3125 33.2205C38.3125 33.1918 38.3331 33.1672 38.3618 33.1672C38.3927 33.1672 38.4153 33.1877 38.4153 33.2164C38.4174 33.2778 38.6703 39.3075 40.5022 42.5497C41.4707 44.2639 42.326 47.3136 42.8503 50.9121C43.2677 53.7795 43.6707 58.3284 43.2183 63.719C42.8441 68.1839 41.4809 75.7558 40.9176 83.0041C40.3295 90.5658 40.2617 97.7485 40.2535 97.8018C40.2494 97.8284 40.2267 97.8468 40.2021 97.8468Z" fill="#020202"/>
<path opacity="0.15" d="M56.8588 94.7726C56.8321 94.7726 56.8095 94.7521 56.8074 94.7275C56.0775 88.4091 53.7541 67.8644 53.6246 61.1404C53.5094 55.1128 53.6616 47.4611 55.0453 45.2368C57.4613 41.3536 57.3626 33.3024 57.3605 33.2205C57.3605 33.1918 57.3831 33.1672 57.4119 33.1672C57.4407 33.1672 57.4654 33.1898 57.4654 33.2184C57.4654 33.2389 57.4941 35.2768 57.2227 37.7694C56.9719 40.0714 56.4065 43.246 55.1337 45.2921C53.7644 47.4938 53.6143 55.1251 53.7294 61.1404C53.859 67.8624 56.1824 88.4029 56.9123 94.7173C56.9164 94.746 56.8958 94.7726 56.867 94.7746C56.867 94.7746 56.8629 94.7746 56.8609 94.7746L56.8588 94.7726Z" fill="#020202"/>
<path opacity="0.15" d="M57.0898 84.3497C57.0898 84.3497 63.8071 76.0302 64.1731 63.2787C64.1731 63.2787 64.5391 75.809 57.0898 84.3497Z" fill="#020202"/>
<path opacity="0.15" d="M31.9167 71.9627C31.9167 71.9627 31.0634 81.1669 32.7679 87.7311C32.7679 87.7311 31.4685 80.8536 31.9167 71.9627Z" fill="#020202"/>
<path opacity="0.15" d="M31.6426 50.0089C31.6426 50.0089 37.2022 56.3868 40.5064 64.528C40.5064 64.528 35.7794 55.6269 31.6426 50.0089Z" fill="#020202"/>
<path opacity="0.15" d="M56.3867 58.6704C56.3867 58.6704 58.8869 54.2096 62.9559 52.0202C62.9559 52.0202 58.9692 53.4129 56.3867 58.6704Z" fill="#020202"/>
<path opacity="0.15" d="M25.9473 89.8223C25.9473 89.8223 32.9955 89.0625 36.2195 94.7726C36.2195 94.7726 33.2484 88.5648 25.9473 89.8223Z" fill="#020202"/>
<path opacity="0.15" d="M70.937 83.6616C70.937 83.6616 63.2143 87.6882 61.9375 92.2145C61.9375 92.2145 64.337 87.6452 70.937 83.6616Z" fill="#020202"/>
<path d="M74.9908 43.0535C74.9908 43.0535 76.9667 49.1057 78.26 55.3463C79.5533 61.587 79.1544 62.7749 80.1495 68.0283C81.1447 73.2817 82.8348 77.7773 79.652 82.4655C76.4692 87.1557 75.3691 89.7158 71.8902 89.724C68.4093 89.7322 64.1758 81.9412 64.1758 81.9412L74.9888 43.0535H74.9908Z" fill="#CB0017"/>
<path opacity="0.15" d="M67.3477 74.0682C67.3477 74.0682 75.241 71.7948 78.3251 76.4645C78.3251 76.4645 75.3644 70.8752 67.3477 74.0682Z" fill="#020202"/>
<path opacity="0.15" d="M71.8964 54.5373C71.8964 54.5373 69.7724 62.8629 68.9109 73.8265H68.2324C68.2324 73.8265 69.2707 62.5885 71.8964 54.5373Z" fill="#020202"/>
<path d="M36.6274 10.0665C37.0057 9.91905 39.035 7.65588 39.7423 7.06807C40.4517 6.48026 40.3324 5.65077 39.6436 5.66715C38.9548 5.68149 38.1633 6.37171 36.5657 7.88731C34.9681 9.40497 34.6206 9.69785 34.2485 9.51557C33.8763 9.33329 34.3369 8.64307 34.3369 8.64307C35.7823 6.59905 36.1277 7.68045 36.393 6.76495C36.6582 5.84944 36.0866 5.831 35.0236 6.05425C33.9585 6.27954 32.5686 7.88936 31.2959 8.9933C30.0252 10.0993 27.0645 12.8499 26.5813 13.6302C26.3161 14.0562 25.2284 14.8427 24.2949 15.4694C25.1461 16.9932 26.4045 19.6476 27.0192 20.8601C27.083 20.8212 27.1447 20.7864 27.2063 20.7536C28.2508 20.1924 29.1535 19.6087 29.7251 19.3015C30.6215 18.8202 31.0204 18.9717 32.9798 18.7731C34.9372 18.5764 35.7967 17.7674 37.1763 17.3742C38.558 16.9769 38.8006 17.0199 39.5758 16.5181C40.3489 16.0142 40.6511 16.0245 41.2227 15.6538C41.344 15.576 41.4304 15.4838 41.4797 15.3855V15.3814C41.49 15.3609 41.5003 15.3425 41.5065 15.322C41.6298 14.9697 41.3111 14.558 40.5627 14.388C40.0651 14.2754 39.3147 14.472 38.6814 14.6994C38.0892 14.9124 37.6019 15.152 37.5135 15.195C37.5526 15.1745 37.5916 15.1499 37.6328 15.1254C37.6328 15.1254 37.6348 15.1233 37.6369 15.1233C37.6965 15.0844 37.7603 15.0393 37.8219 14.9902C38.3874 14.5539 39.0556 13.7818 39.9623 13.1162C41.0459 12.3235 43.7024 10.044 44.3274 9.55244C44.9525 9.05884 44.3295 8.32766 43.9635 8.23345C43.5975 8.13923 43.0855 8.53452 42.2878 9.12848C41.49 9.72243 38.484 12.174 38.007 12.2068C37.53 12.2396 37.6205 11.8463 37.9124 11.705C38.2023 11.5657 39.3085 10.6809 39.9171 10.3676C40.5237 10.0563 42.2487 7.72347 42.9046 7.26059C43.5625 6.79567 43.4145 5.97028 42.9766 5.73065C42.5407 5.49306 42.1932 5.66715 41.5476 6.31026C40.904 6.95133 39.0165 8.69837 37.5958 9.78387C36.173 10.8694 36.2449 10.2078 36.6253 10.0624L36.6274 10.0665Z" fill="#FFC7A0"/>
<path opacity="0.1" d="M26.7129 14.5498C26.7129 14.5498 28.6168 15.7951 29.1946 17.4868C29.1946 17.4868 28.6497 16.0573 26.7129 14.5498Z" fill="black"/>
<path opacity="0.1" d="M37.6058 14.7465C37.542 14.7956 37.4824 14.8386 37.4207 14.8796C37.4207 14.8796 37.4187 14.8796 37.4166 14.8816C37.3632 14.9144 37.32 14.939 37.2994 14.9513C37.2932 14.9533 37.2912 14.9554 37.2891 14.9574C37.2891 14.9574 36.8265 15.3179 36.1336 15.3793C35.4613 15.4387 35.1981 15.5534 35.1816 15.5596C35.1981 15.5452 35.4921 15.3117 36.1788 15.2626C36.2158 15.2605 36.2549 15.2544 36.2899 15.2442C36.4873 15.1889 37.1596 14.9922 37.6078 14.7465H37.6058Z" fill="black"/>
<path opacity="0.1" d="M37.9805 12.1331C37.9805 12.1331 38.6364 12.8028 38.587 13.3906C38.587 13.3906 38.6508 12.6123 37.9805 12.1331Z" fill="black"/>
<path opacity="0.1" d="M33.7892 9.06089C33.7892 9.06089 33.086 8.44031 32.5 8.51609C32.5 8.51609 33.2772 8.41573 33.7892 9.06089Z" fill="black"/>
<path opacity="0.1" d="M36.0915 10.0174C36.0915 10.0174 35.5178 9.27389 34.9277 9.23907C34.9277 9.23907 35.7111 9.28823 36.0915 10.0174Z" fill="black"/>
<path opacity="0.1" d="M37.4359 11.6681C37.4359 11.6681 37.2426 10.7526 36.7266 10.4659C36.7266 10.4659 37.4112 10.8468 37.4359 11.6681Z" fill="black"/>
<path opacity="0.1" d="M35.2722 7.18685C35.2722 7.18685 34.7088 7.2442 34.3223 6.68097C34.3223 6.68097 34.7232 7.13156 35.2722 7.18685Z" fill="black"/>
<path opacity="0.1" d="M37.875 6.95746C37.875 6.95746 38.0374 7.48383 38.5432 7.60876C38.5432 7.60876 38.1053 7.46334 37.875 6.95746Z" fill="black"/>
<path opacity="0.1" d="M40.6875 7.1889C40.6875 7.1889 40.8499 7.71527 41.3557 7.84021C41.3557 7.84021 40.9178 7.69479 40.6875 7.1889Z" fill="black"/>
<path opacity="0.1" d="M41.9238 9.64664C41.9238 9.64664 41.9999 10.1914 42.479 10.3942C42.479 10.3942 42.0698 10.1832 41.9238 9.64664Z" fill="black"/>
<path opacity="0.1" d="M40.0059 10.9452C40.0059 10.9452 40.0984 11.6067 40.6803 11.8525C40.6803 11.8525 40.1827 11.5965 40.0059 10.9452Z" fill="black"/>
<path opacity="0.1" d="M33.6562 7.17868C33.6562 7.17868 33.8187 7.70505 34.3245 7.82998C34.3245 7.82998 33.8865 7.68457 33.6562 7.17868Z" fill="black"/>
<path opacity="0.1" d="M36.3535 8.02863C36.3535 8.02863 36.5509 8.66969 37.1677 8.8233C37.1677 8.8233 36.6331 8.64716 36.3535 8.02863Z" fill="black"/>
<path opacity="0.1" d="M38.7598 8.91138C38.7598 8.91138 38.9571 9.55244 39.574 9.70605C39.574 9.70605 39.0394 9.52991 38.7598 8.91138Z" fill="black"/>
<path opacity="0.05" d="M34.0391 18.1566C34.0391 18.1566 34.9622 17.2431 35.1946 15.7542C35.1946 15.7542 35.1473 17.1878 34.0391 18.1566Z" fill="black"/>
<path opacity="0.1" d="M37.6758 15.0619C37.6758 15.0619 37.8279 15.7828 38.5661 15.9999C38.5661 15.9999 38.0294 15.8525 37.6758 15.0619Z" fill="black"/>
<path d="M17.6007 37.4826C17.5802 37.6096 17.6912 37.7243 17.8248 37.6977C18.2772 37.6096 19.1592 37.4417 20.2161 37.2594C21.7602 36.9931 22.6381 36.6449 24.3262 36.3172L26.0615 36.7289C27.7496 36.4012 27.2623 54.5414 24.8464 56.6469C24.8464 56.6469 24.7827 56.5772 24.6655 56.4625C24.3056 56.1062 23.4318 55.3176 22.3071 54.8077C22.157 54.7401 22.0008 54.6745 21.8424 54.6192C21.8404 54.6192 21.8342 54.6172 21.8322 54.6151C21.5196 54.5045 21.1927 54.4206 20.8535 54.3735C18.6391 54.0724 12.331 53.3043 7.8014 49.7283C3.27183 46.1523 -0.285205 42.8753 0.0828356 39.5656C0.450876 36.2578 5.95504 30.7095 8.0687 28.4361C10.1824 26.1627 19.2703 18.4249 21.2565 16.9707C23.6066 15.2523 25.5886 13.6446 25.9238 13.9149C26.2589 14.1812 30.7556 18.5949 30.7227 20.3993C30.7227 20.3993 20.2243 30.4166 17.6131 37.4499C17.611 37.4621 17.6069 37.4744 17.6048 37.4867L17.6007 37.4826Z" fill="#CB0017"/>
<path opacity="0.15" d="M17.8251 37.6977C17.8251 37.6977 15.5223 47.3791 9.8125 44.0079C10.4519 44.3705 15.2447 46.7258 17.601 37.4847C17.5804 37.6117 17.6914 37.7264 17.8251 37.6997V37.6977Z" fill="black"/>
<path opacity="0.15" d="M24.844 56.6469C24.844 56.6469 24.7802 56.5772 24.663 56.4625C24.3032 56.1062 23.4294 55.3176 22.3047 54.8077C22.7735 54.9879 23.1456 55.1108 23.4438 55.1947C23.9948 55.3545 24.5623 55.0002 24.6733 54.4369C24.6795 54.4062 24.6856 54.3735 24.6918 54.3427C25.9913 47.713 25.284 42.7258 25.2346 42.3961C26.2771 46.9695 24.844 56.6469 24.844 56.6469Z" fill="black"/>
<path d="M35.9471 18.6563C35.9471 18.6563 33.9918 16.6778 33.9733 18.9328C33.9548 21.1878 34.3352 19.8033 34.5572 22.9205C34.7423 25.5155 36.7387 24.6962 36.7387 24.6962L35.9471 18.6563Z" fill="#FFC7A0"/>
<path d="M59.2525 19.2031C59.2525 19.2031 61.2079 17.2247 61.2264 19.4796C61.2449 21.7346 60.8645 20.3501 60.6424 23.4673C60.4574 26.0623 58.4609 25.2431 58.4609 25.2431L59.2525 19.2031Z" fill="#FFC7A0"/>
<path d="M58.4874 22.2016C58.4853 22.4515 58.4833 22.7055 58.4812 22.9615C58.4771 23.3465 58.475 23.7357 58.475 24.133C58.475 25.1571 58.3866 26.1565 58.2263 27.1212C58.2139 27.1929 58.2016 27.2666 58.1893 27.3383C57.885 29.0423 57.3504 30.5887 56.6678 31.965C54.3094 36.7207 50.1623 39.4304 47.4626 39.4304C44.763 39.4304 40.9633 37.0341 38.6687 32.432C37.8669 30.8242 37.2521 28.9461 36.9395 26.8058C36.9272 26.7177 36.9149 26.6297 36.9026 26.5436C36.7792 25.6138 36.7113 24.6491 36.7113 23.6496C36.7113 23.1683 36.7072 22.6952 36.7011 22.2344C36.6969 21.9476 36.6928 21.6671 36.6887 21.3885C36.5797 14.2652 36.5037 9.83917 47.4606 9.83917C58.4175 9.83917 58.547 14.8161 58.4853 22.2037L58.4874 22.2016Z" fill="#FFC7A0"/>
<path d="M37.1048 19.2564C37.1048 19.2564 36.7142 24.2538 36.7389 24.6983C36.7635 25.1427 35.5751 19.2564 35.388 17.6466C35.2009 16.0368 33.5375 10.6052 35.1084 8.07368C36.6792 5.54221 36.5785 5.03633 38.3611 3.88528C40.1437 2.73424 43.5157 -0.256013 46.1496 0.0184351C48.7834 0.294931 53.4035 1.53814 55.0196 2.68713C56.6357 3.83818 59.1235 4.71272 60.4435 7.88731C61.7635 11.0619 58.8788 20.8888 58.6342 24.7208C58.6342 24.7208 58.5602 25.2779 58.114 20.1064C58.0955 19.8852 57.9927 19.6783 57.8241 19.5288C57.4478 19.1929 56.7385 18.3327 56.2882 16.3645C56.2101 16.0265 55.9304 15.7705 55.585 15.7275C54.2403 15.5616 50.9794 15.2114 49.8896 15.5739C48.5429 16.0204 43.4849 17.6445 39.2247 15.3732C39.0067 15.2564 38.7353 15.3445 38.6222 15.5657C38.3385 16.1269 37.8944 17.194 37.9396 18.2897C37.9479 18.472 37.8368 18.6399 37.6662 18.7075C37.4235 18.8038 37.1213 18.9799 37.0987 19.2564H37.1048Z" fill="#232628"/>
<path opacity="0.1" d="M56.7183 31.965C56.7183 31.965 53.922 39.6372 47.8524 39.84C41.8301 40.0407 38.7172 32.5487 38.6699 32.434C40.9666 37.0361 44.7991 39.4324 47.4638 39.4324C50.1285 39.4324 54.3086 36.7207 56.6689 31.967H56.7183V31.965Z" fill="#272727"/>
<g opacity="0.15">
<path d="M56.4005 14.4331C56.4005 14.4331 54.7515 12.8478 52.5227 12.7045C50.2939 12.5611 41.9605 12.4444 39.3555 9.30255" stroke="white" stroke-width="1.5" stroke-miterlimit="10" stroke-linecap="round"/>
<path d="M44.9988 15.6435C44.9988 15.6435 39.1924 16.7741 35.3105 9.83914" stroke="white" stroke-width="1.5" stroke-miterlimit="10" stroke-linecap="round"/>
<path d="M43.0726 14.0009C43.0726 14.0009 39.8548 14.4904 36.5527 10.3696" stroke="white" stroke-width="1.5" stroke-miterlimit="10" stroke-linecap="round"/>
<path d="M60.2195 13.28C60.2195 13.28 59.6418 14.8939 54.7791 10.7424C49.9185 6.59085 41.3816 10.3676 38.3633 5.5545" stroke="white" stroke-width="1.5" stroke-miterlimit="10" stroke-linecap="round"/>
<path d="M58.8591 7.51453C58.8591 7.51453 56.3116 8.81099 52 4.86221" stroke="white" stroke-width="1.5" stroke-miterlimit="10" stroke-linecap="round"/>
<path d="M52.1459 4.14129C52.1459 4.14129 47.1969 4.7762 43.9277 1.74908" stroke="white" stroke-width="1.5" stroke-miterlimit="10" stroke-linecap="round"/>
<path d="M51.7992 7.19708C51.7992 7.19708 44.13 7.60056 40.832 4.05527" stroke="white" stroke-width="1.5" stroke-miterlimit="10" stroke-linecap="round"/>
<path d="M56.9512 16.4792C56.9512 16.4792 58.1231 18.8427 59.2437 18.5252" stroke="white" stroke-width="1.5" stroke-miterlimit="10" stroke-linecap="round"/>
<path d="M58.498 15.5575C58.498 15.5575 58.6009 16.3931 59.5261 16.6246" stroke="white" stroke-width="1.5" stroke-miterlimit="10" stroke-linecap="round"/>
<path d="M35.947 14.0193C35.947 14.0193 35.5214 16.1064 35.947 17.6916" stroke="white" stroke-width="1.5" stroke-miterlimit="10" stroke-linecap="round"/>
<path d="M37.7346 15.8545C37.7346 15.8545 37.4447 18.1812 36.2871 18.8427" stroke="white" stroke-width="1.5" stroke-miterlimit="10" stroke-linecap="round"/>
</g>
<path d="M54.9985 22.048C54.9738 22.0255 54.9491 22.0071 54.9244 21.9886C53.5674 20.9318 52.0809 20.6369 50.6313 21.1612C50.5059 21.2062 50.3743 21.2636 50.2756 21.452C50.0885 21.8084 50.0823 22.1955 50.1317 22.7546C51.7951 21.8104 53.5407 21.7674 55.2102 22.6338C55.2514 22.4433 55.2328 22.431 55.167 22.2815C55.1198 22.175 55.0601 22.1054 54.9985 22.0501V22.048Z" fill="#232628"/>
<path d="M40.0697 22.4126C40.0923 22.388 40.1149 22.3675 40.1375 22.347C41.3958 21.1735 42.8495 20.7495 44.3401 21.1448C44.4697 21.1796 44.6054 21.2247 44.7205 21.4029C44.9385 21.7408 44.9796 22.1258 44.9796 22.687C43.2402 21.8944 41.4966 22.003 39.9113 23.0147C39.8538 22.8284 39.8702 22.8161 39.9216 22.6604C39.9586 22.5498 40.0121 22.4761 40.0697 22.4146V22.4126Z" fill="#232628"/>
<path d="M53.5218 24.8289C53.5263 24.0246 52.9887 23.3697 52.321 23.366C51.6533 23.3622 51.1084 24.0112 51.1039 24.8154C51.0994 25.6197 51.637 26.2746 52.3047 26.2783C52.9724 26.282 53.5173 25.6331 53.5218 24.8289Z" fill="#232628"/>
<path d="M43.4905 25.1335C43.4951 24.3293 42.9574 23.6743 42.2897 23.6706C41.6221 23.6669 41.0771 24.3158 41.0726 25.1201C41.0681 25.9243 41.6057 26.5793 42.2734 26.583C42.9411 26.5867 43.486 25.9377 43.4905 25.1335Z" fill="#232628"/>
<path opacity="0.1" d="M47.2931 25.0833C47.2767 24.9871 47.2808 24.8887 47.3096 24.7945C47.3795 24.5692 47.5378 24.2477 47.7701 24.8683C48.0374 25.5831 47.9819 29.0485 47.6509 30.3347C47.5748 30.6276 47.7187 30.9348 47.9984 31.0536L48.4898 31.2645C48.644 31.3301 48.7715 31.453 48.8229 31.6127C48.8804 31.793 48.8311 31.9957 48.3253 32.0203C47.4062 32.0633 46.3021 31.1683 46.629 30.3122C46.9498 29.4745 47.6776 27.2502 47.2931 25.0833Z" fill="#272727"/>
<path d="M50.7451 35.371C50.632 35.4652 50.301 35.3075 49.8034 35.1068C49.3058 34.904 48.6211 34.6706 47.8439 34.5825C47.0667 34.4965 46.3492 34.5743 45.8208 34.6644C45.2923 34.7504 44.9346 34.8324 44.8441 34.7156C44.8009 34.6603 44.8359 34.562 44.9469 34.435C45.0579 34.3101 45.2512 34.1606 45.5226 34.0193C45.794 33.8779 46.1456 33.7489 46.5609 33.669C46.9742 33.5892 47.4512 33.5625 47.9488 33.6158C48.4443 33.6731 48.9049 33.8042 49.2914 33.9721C49.68 34.1421 49.9967 34.3449 50.2311 34.5415C50.4655 34.7402 50.6238 34.9266 50.706 35.074C50.7883 35.2215 50.8006 35.3239 50.7471 35.369L50.7451 35.371Z" fill="#232628"/>
<path opacity="0.1" d="M45.9885 21.7224C45.9329 21.7305 45.8672 21.7613 45.8713 21.8125C45.8754 21.8678 45.9309 21.8739 45.9761 21.8903C46.0502 21.919 46.1221 21.9558 46.19 21.9948C46.2578 22.0337 46.3257 22.0787 46.3668 22.1402C46.3976 22.1832 46.4141 22.2344 46.4285 22.2856C46.4531 22.3716 46.4634 22.4556 46.4737 22.5416C46.4819 22.6133 46.5539 22.6542 46.6259 22.5887C46.6526 22.5641 46.669 22.5314 46.6814 22.4986C46.7184 22.3962 46.7287 22.2917 46.7081 22.1914C46.6958 22.1361 46.6752 22.0808 46.6423 22.0275C46.5231 21.8309 46.2434 21.6834 45.9864 21.7203L45.9885 21.7224ZM49.1548 21.5565C49.1816 21.4356 49.0315 21.3291 48.904 21.3824C48.6902 21.4725 48.5627 21.6937 48.5113 21.8903C48.4352 22.1709 48.4866 22.5068 48.756 22.6891C48.795 22.7157 48.8526 22.7382 48.8896 22.7095C48.9821 22.6399 48.8773 22.3368 48.8752 22.2487C48.8711 22.1176 48.904 21.9866 48.9677 21.8698C49.0233 21.7674 49.1302 21.6732 49.1548 21.5585V21.5565ZM47.3763 21.0465C47.3393 21.028 47.3064 21.0424 47.2961 21.0792C47.2715 21.1591 47.3167 21.2124 47.3578 21.2738C47.4051 21.3435 47.4462 21.4151 47.4791 21.4909C47.547 21.6384 47.5881 21.7961 47.6087 21.9558C47.6272 22.1053 47.6292 22.2569 47.6148 22.4085C47.6025 22.5518 47.5655 22.6911 47.5552 22.8324C47.5552 22.8468 47.5675 22.8857 47.5902 22.8652C47.8513 22.6317 47.8862 22.2917 47.8534 21.9845C47.8348 21.8125 47.7917 21.6384 47.7197 21.4807C47.6498 21.325 47.549 21.1263 47.3763 21.0444V21.0465Z" fill="#272727"/>
<path opacity="0.4" d="M74.4954 98.7828C74.4954 98.7828 75.3075 101.214 67.6877 101.005C64.4987 100.917 56.5992 100.096 48.492 99.8785C37.2308 99.5775 25.5687 99.8785 25.5687 99.8785C25.5687 99.8785 24.0142 99.4771 23.2617 97.8468L74.4954 98.7828Z" fill="#020202"/>
<path d="M75.835 71.721L74.5808 98.2872C74.5767 98.4592 74.5459 98.6271 74.4945 98.7828C74.4718 98.8545 74.4451 98.9221 74.4122 98.9876C74.258 99.303 74.0092 99.559 73.7049 99.7147C73.4911 99.8232 73.2485 99.8826 72.9915 99.8765L38.1325 99.1474L37.8919 99.1412L36.8043 99.1166L24.8275 98.92C23.9701 98.9016 23.2896 98.1561 23.3101 97.2549L23.2402 70.4983C23.2587 69.5992 23.9701 68.8864 24.8275 68.9069L74.3135 70.0538C75.1709 70.0743 75.8515 70.8198 75.833 71.719L75.835 71.721Z" fill="#D8D7D6"/>
<path d="M50.3907 88.9621L47.9337 88.9047C46.2456 88.8658 44.9071 87.3993 44.9441 85.6277L44.9976 83.0512C45.0346 81.2816 46.4327 79.8766 48.1228 79.9155L50.5799 79.9729C52.2679 80.0118 53.6064 81.4782 53.5694 83.2499L53.5159 85.8264C53.4789 87.596 52.0808 89.001 50.3907 88.9621Z" fill="white"/>
<path opacity="0.05" d="M33.5469 98.578C33.5469 98.578 71.5455 97.6277 74.9874 79.3912L73.9614 96.7633C73.8853 98.0639 72.847 99.0757 71.6051 99.0593L33.5469 98.578Z" fill="black"/>
</svg>
