<svg width="43" height="44" viewBox="0 0 43 44" fill="none" xmlns="http://www.w3.org/2000/svg">
<rect y="0.949219" width="43" height="43" rx="21.5" fill="#EA2124"/>
<path fill-rule="evenodd" clip-rule="evenodd" d="M21.4981 17.7784C17.0506 17.7794 19.1182 21.1692 16.2878 21.1702C13.5576 21.1711 12.5 21.682 12.5 18.224C12.5428 17.8329 11.8238 14.3613 21.4981 14.3594C31.1723 14.3584 30.4572 17.83 30.5 18.2201C30.5 21.6878 29.4424 21.1672 26.7122 21.1682C23.8809 21.1682 25.9455 17.7784 21.4981 17.7784Z" stroke="white" stroke-width="1.5" stroke-linecap="round" stroke-linejoin="round"/>
<path d="M28.06 21.4609L28.8072 26.463C29.2664 28.8292 27.304 30.5397 24.9192 30.5397H18.0704C15.6847 30.5397 13.8847 28.8292 14.2 26.463L14.9384 21.4609" stroke="white" stroke-width="1.5" stroke-linecap="round" stroke-linejoin="round"/>
<path fill-rule="evenodd" clip-rule="evenodd" d="M23.7161 24.4508C23.7161 23.2268 22.7236 22.2344 21.4996 22.2344C20.2756 22.2344 19.2832 23.2268 19.2832 24.4508C19.2832 25.6748 20.2756 26.6672 21.4996 26.6672C22.7236 26.6672 23.7161 25.6748 23.7161 24.4508Z" stroke="white" stroke-width="1.5" stroke-linecap="round" stroke-linejoin="round"/>
</svg>
