<svg width="48" height="49" viewBox="0 0 48 49" fill="none" xmlns="http://www.w3.org/2000/svg">
<path d="M32.1249 24.0107H32.124C32.0009 24.0108 31.879 24.0352 31.7653 24.0824C31.6516 24.1296 31.5483 24.1988 31.4614 24.2859C31.3744 24.373 31.3054 24.4764 31.2584 24.5902C31.2114 24.704 31.1872 24.8259 31.1873 24.9491C31.1862 26.2634 30.8247 27.5523 30.1423 28.6756C29.4599 29.7989 28.4827 30.7137 27.3168 31.3205C26.1509 31.9273 24.841 32.2029 23.5295 32.1174C22.2179 32.0318 20.9549 31.5884 19.8777 30.8353C16.6316 28.5623 15.8398 24.0722 18.1128 20.8261C20.3858 17.5799 24.876 16.7881 28.1221 19.0611C28.6132 19.4041 29.0595 19.8071 29.4507 20.2607H26.8124C26.5637 20.2607 26.3253 20.3595 26.1495 20.5353C25.9736 20.7111 25.8749 20.9496 25.8749 21.1982C25.8749 21.4469 25.9736 21.6853 26.1495 21.8612C26.3253 22.037 26.5637 22.1357 26.8124 22.1357H31.1874C31.436 22.1357 31.6745 22.037 31.8503 21.8612C32.0261 21.6853 32.1249 21.4469 32.1249 21.1982V16.8232C32.1249 16.5746 32.0261 16.3361 31.8503 16.1603C31.6745 15.9845 31.436 15.8857 31.1874 15.8857C30.9387 15.8857 30.7003 15.9845 30.5245 16.1603C30.3486 16.3361 30.2499 16.5746 30.2499 16.8232V18.3845C29.9209 18.0723 29.5691 17.7851 29.1975 17.5251C28.2227 16.8425 27.123 16.3586 25.9612 16.1011C24.7994 15.8435 23.5982 15.8173 22.4263 16.024C21.2543 16.2306 20.1346 16.6661 19.1309 17.3055C18.1273 17.9449 17.2594 18.7757 16.5768 19.7505C15.1983 21.7192 14.6584 24.1549 15.0757 26.5218C15.4931 28.8886 16.8335 30.9927 18.8023 32.3712C20.318 33.4389 22.1266 34.0121 23.9807 34.0124C24.5147 34.0122 25.0476 33.9653 25.5735 33.8724C27.6717 33.5022 29.5724 32.4047 30.9419 30.7726C32.3114 29.1405 33.0622 27.078 33.0624 24.9474C33.0622 24.6989 32.9633 24.4607 32.7875 24.2851C32.6117 24.1094 32.3734 24.0108 32.1249 24.0107Z" fill="#71717A"/>
</svg>
