<svg xmlns="http://www.w3.org/2000/svg" width="25" height="25" viewBox="0 0 25 25" fill="none">
<path d="M18.1207 18.1543C18.5072 17.7704 19.1268 17.7704 19.5134 18.1543L22.068 20.2164H22.1124C22.6292 20.7388 22.6292 21.5858 22.1124 22.1082C21.5955 22.6306 20.7576 22.6306 20.2407 22.1082L18.1207 19.6785L18.0403 19.5877C17.8904 19.398 17.8076 19.1615 17.8076 18.9164C17.8076 18.6304 17.9203 18.3562 18.1207 18.1543ZM11.0776 2.5C13.3526 2.5 15.5343 3.41344 17.1429 5.03936C18.7516 6.66529 19.6553 8.87052 19.6553 11.1699C19.6553 15.9582 15.8149 19.8399 11.0776 19.8399C6.34034 19.8399 2.5 15.9582 2.5 11.1699C2.5 6.38166 6.34034 2.5 11.0776 2.5Z" fill="#A1A1AA"/>
</svg>