<svg width="24" height="24" viewBox="0 0 24 24" fill="none" xmlns="http://www.w3.org/2000/svg">
<path d="M17.5999 14.79C17.5409 14.434 17.6599 14.071 17.9189 13.82L21.6589 10.28C21.9669 9.991 22.0799 9.551 21.9489 9.15C21.8099 8.75 21.4589 8.46 21.0389 8.4L16.0689 7.679C15.7099 7.624 15.3989 7.397 15.2389 7.07L13.0199 2.6C12.8469 2.264 12.5159 2.039 12.1399 2H11.7189L11.5489 2.07L11.4399 2.11C11.3799 2.145 11.3259 2.188 11.2789 2.24L11.1889 2.31C11.1079 2.388 11.0409 2.48 10.9889 2.58L8.79888 7.07C8.62888 7.41 8.29688 7.64 7.91888 7.679L2.94888 8.4C2.53588 8.465 2.19388 8.754 2.05988 9.15C1.92188 9.547 2.02688 9.987 2.32888 10.28L5.93988 13.78C6.19888 14.035 6.31788 14.4 6.25888 14.759L5.36888 19.679C5.27188 20.274 5.66688 20.838 6.25888 20.95C6.50188 20.989 6.74988 20.95 6.96888 20.84L11.3989 18.519C11.4829 18.473 11.5749 18.443 11.6689 18.429H11.9399C12.1149 18.434 12.2859 18.478 12.4399 18.56L16.8689 20.87C17.2419 21.07 17.6969 21.04 18.0389 20.79C18.3879 20.549 18.5639 20.127 18.4889 19.71L17.5999 14.79Z" fill="#EAB308"/>
</svg>
