<svg width="24" height="24" viewBox="0 0 24 24" fill="none" xmlns="http://www.w3.org/2000/svg">
<path fill-rule="evenodd" clip-rule="evenodd" d="M12.0026 3.74609C11.2876 3.74609 10.8786 4.64609 10.3366 6.01809C10.0026 6.86709 9.65552 7.74309 9.10052 8.31709C8.37952 9.06109 7.23052 9.11909 6.11852 9.17409C4.65052 9.24609 3.94152 9.35209 3.78652 10.0121C3.61652 10.7371 4.09752 11.2271 5.15652 12.1011C5.94452 12.7511 6.83752 13.4871 7.07552 14.5701C7.27952 15.4991 7.03052 16.4741 6.78952 17.4161C6.41852 18.8681 6.30952 19.6011 6.91352 20.0581C7.46952 20.4771 8.05952 20.1711 9.27152 19.3691C10.1256 18.8051 11.0066 18.2211 12.0026 18.2211C12.9976 18.2211 13.8796 18.8051 14.7326 19.3691C15.9436 20.1701 16.5326 20.4771 17.0916 20.0581C17.6956 19.6011 17.5866 18.8671 17.2146 17.4151C16.9746 16.4741 16.7256 15.4991 16.9296 14.5691C17.1666 13.4871 18.0596 12.7511 18.8476 12.1011C19.9066 11.2281 20.3876 10.7371 20.2176 10.0111C20.0625 9.35209 19.3546 9.24609 17.8866 9.17409C16.7746 9.11909 15.6246 9.06109 14.9046 8.31709C14.3496 7.74309 14.0026 6.86709 13.6686 6.01809C13.1256 4.64509 12.7166 3.74609 12.0026 3.74609ZM7.42152 21.7531C6.95852 21.7531 6.48452 21.6121 6.01052 21.2551C4.54252 20.1481 4.98252 18.4271 5.33552 17.0451C5.53352 16.2711 5.73752 15.4741 5.60952 14.8921C5.48352 14.3141 4.86152 13.8021 4.20352 13.2591C3.18852 12.4231 1.92452 11.3811 2.32652 9.66909C2.75752 7.83809 4.65752 7.74409 6.04452 7.67609C6.82752 7.63709 7.71452 7.59309 8.02252 7.27409C8.37052 6.91509 8.66052 6.18009 8.94152 5.46809C9.50852 4.03209 10.2136 2.24609 12.0026 2.24609C13.7906 2.24609 14.4966 4.03209 15.0636 5.46809C15.3446 6.18009 15.6346 6.91509 15.9826 7.27409C16.2906 7.59309 17.1776 7.63709 17.9606 7.67609C19.3476 7.74409 21.2476 7.83809 21.6776 9.66809C22.0796 11.3811 20.8156 12.4231 19.8016 13.2591C19.1426 13.8021 18.5205 14.3141 18.3946 14.8921C18.2666 15.4731 18.4706 16.2711 18.6686 17.0441C19.0226 18.4271 19.4616 20.1471 17.9946 21.2551C16.5296 22.3571 15.0746 21.3941 13.9046 20.6201C13.2366 20.1781 12.5456 19.7211 12.0026 19.7211C11.4586 19.7211 10.7676 20.1781 10.0996 20.6201C9.30852 21.1431 8.38752 21.7531 7.42152 21.7531Z" fill="#EAB308"/>
</svg>
