<svg width="31" height="31" viewBox="0 0 31 31" fill="none" xmlns="http://www.w3.org/2000/svg">
<path d="M15.6928 4.92969V6.62547V4.92969ZM26.8174 16.0545H25.1216H26.8174ZM6.26366 16.0545H4.56787H6.26366ZM23.5589 8.18779L22.3598 9.38686L23.5589 8.18779ZM9.02565 9.38745L7.82656 8.18837L9.02565 9.38745Z" fill="#57525B"/>
<path d="M15.6928 4.92969V6.62547M26.8174 16.0545H25.1216M6.26366 16.0545H4.56787M23.5589 8.18779L22.3598 9.38686M9.02565 9.38745L7.82656 8.18837" stroke="#57525B" stroke-width="3" stroke-linecap="round" stroke-linejoin="round"/>
<path d="M20.8779 16.0556C20.8779 13.192 18.5567 10.8696 15.6919 10.8696C12.8271 10.8696 10.5059 13.192 10.5059 16.0556C10.5011 16.2901 10.5111 16.8296 10.5896 17.1109" stroke="#57525B" stroke-width="3" stroke-linecap="round" stroke-linejoin="round"/>
<path d="M16.2708 25.348C11.3821 23.9163 11.1099 25.8219 8.60498 25.8219" stroke="#57525B" stroke-width="3" stroke-linecap="round" stroke-linejoin="round"/>
<path d="M24.8623 25.3481C24.8623 25.3481 23.2681 26.0143 20.895 26.0699" stroke="#57525B" stroke-width="3" stroke-linecap="round" stroke-linejoin="round"/>
<path d="M17.3547 18.0985C16.5411 18.0615 15.6323 17.9165 14.6787 17.5842C12.8074 16.9322 11.1082 17.0011 9.96289 17.1931" stroke="#57525B" stroke-width="3" stroke-linecap="round" stroke-linejoin="round"/>
<path d="M4.31885 21.909C4.31885 21.909 6.62956 20.2434 10.7324 20.6739" stroke="#57525B" stroke-width="3" stroke-linecap="round" stroke-linejoin="round"/>
<path d="M18.2437 21.9805C21.3189 22.636 23.6533 21.3401 26.5671 20.9807" stroke="#57525B" stroke-width="3" stroke-linecap="round" stroke-linejoin="round"/>
</svg>
