<svg width="44" height="43" viewBox="0 0 44 43" fill="none" xmlns="http://www.w3.org/2000/svg">
<rect x="0.5" width="43" height="43" rx="21.5" fill="white"/>
<path fill-rule="evenodd" clip-rule="evenodd" d="M21.4981 16.8292C17.0506 16.8302 19.1182 20.22 16.2878 20.221C13.5576 20.2219 12.5 20.7328 12.5 17.2748C12.5428 16.8837 11.8238 13.4121 21.4981 13.4102C31.1723 13.4092 30.4572 16.8807 30.5 17.2709C30.5 20.7386 29.4424 20.218 26.7122 20.219C23.8809 20.219 25.9455 16.8292 21.4981 16.8292Z" stroke="#D8111F" stroke-width="1.5" stroke-linecap="round" stroke-linejoin="round"/>
<path d="M28.06 20.5117L28.8072 25.5138C29.2664 27.88 27.304 29.5905 24.9192 29.5905H18.0704C15.6847 29.5905 13.8847 27.88 14.2 25.5138L14.9384 20.5117" stroke="#D8111F" stroke-width="1.5" stroke-linecap="round" stroke-linejoin="round"/>
<path fill-rule="evenodd" clip-rule="evenodd" d="M23.7161 23.5016C23.7161 22.2776 22.7236 21.2852 21.4996 21.2852C20.2756 21.2852 19.2832 22.2776 19.2832 23.5016C19.2832 24.7256 20.2756 25.718 21.4996 25.718C22.7236 25.718 23.7161 24.7256 23.7161 23.5016Z" stroke="#D8111F" stroke-width="1.5" stroke-linecap="round" stroke-linejoin="round"/>
</svg>
