<svg width="300" height="245" viewBox="0 0 300 245" fill="none" xmlns="http://www.w3.org/2000/svg">
<g clip-path="url(#clip0_69_4432)">
<path d="M222.012 242.624H77.9883V244.568C77.9883 244.807 78.2285 245 78.5243 245H221.477C221.773 245 222.014 244.807 222.014 244.568V242.624H222.012Z" fill="url(#paint0_linear_69_4432)"/>
<path d="M221.622 242.283L211.337 238.048C202.429 234.38 196.195 227.496 194.539 219.499L187.274 184.396H112.722L105.458 219.499C103.802 227.496 97.5698 234.38 88.6593 238.048L78.3749 242.283C77.7078 242.558 77.9481 243.376 78.6966 243.376H221.296C222.045 243.376 222.287 242.558 221.618 242.283H221.622Z" fill="url(#paint1_linear_69_4432)"/>
<path d="M290.703 18.6906H9.29733C4.4387 18.6906 0.5 22.639 0.5 27.5095V191.392C0.5 196.263 4.4387 200.211 9.29733 200.211H290.703C295.561 200.211 299.5 196.263 299.5 191.392V27.5095C299.5 22.639 295.561 18.6906 290.703 18.6906Z" fill="url(#paint2_linear_69_4432)"/>
<mask id="mask0_69_4432" style="mask-type:luminance" maskUnits="userSpaceOnUse" x="10" y="28" width="280" height="163">
<path d="M287.214 28.8032H12.7857C11.5719 28.8032 10.5879 29.7896 10.5879 31.0064V187.895C10.5879 189.112 11.5719 190.098 12.7857 190.098H287.214C288.428 190.098 289.412 189.112 289.412 187.895V31.0064C289.412 29.7896 288.428 28.8032 287.214 28.8032Z" fill="white"/>
</mask>
<g mask="url(#mask0_69_4432)">
<path d="M3.89844 183.678V196.215H295.112V183.678V23.1588H3.89844V183.678Z" fill="#5D1B23"/>
</g>
<path d="M278.376 0H22.086C20.5575 0 19.3184 1.24216 19.3184 2.77443V178.398C19.3184 179.93 20.5575 181.172 22.086 181.172H278.376C279.905 181.172 281.144 179.93 281.144 178.398V2.77443C281.144 1.24216 279.905 0 278.376 0Z" fill="white"/>
<path d="M22.086 0H278.376C279.905 0 281.144 1.24392 281.144 2.77443V30.9944H19.3184V2.77443C19.3184 1.24193 20.5592 0 22.086 0Z" fill="#CCCCCC"/>
<path d="M95.1668 11.2251L92.3217 6.0763C91.8333 5.19262 90.9061 4.64529 89.8995 4.64529H53.1C52.0934 4.64529 51.1643 5.19262 50.6778 6.0763L47.8327 11.2251C47.3443 12.1088 46.4172 12.6561 45.4106 12.6561H19.3184V30.9964H281.144V12.6561H97.589C96.5824 12.6561 95.6532 12.1088 95.1668 11.2251Z" fill="#E6E6E6"/>
<path d="M257.988 17.8209H46.2031V25.6725H257.988V17.8209Z" fill="white"/>
<path d="M272.966 17.8209H264.333C263.968 17.8209 263.672 18.1176 263.672 18.4836V18.9215C263.672 19.2875 263.968 19.5842 264.333 19.5842H272.966C273.331 19.5842 273.627 19.2875 273.627 18.9215V18.4836C273.627 18.1176 273.331 17.8209 272.966 17.8209Z" fill="#CCCCCC"/>
<path d="M272.966 20.864H264.333C263.968 20.864 263.672 21.1607 263.672 21.5267V21.9646C263.672 22.3306 263.968 22.6274 264.333 22.6274H272.966C273.331 22.6274 273.627 22.3306 273.627 21.9646V21.5267C273.627 21.1607 273.331 20.864 272.966 20.864Z" fill="#CCCCCC"/>
<path d="M272.966 23.9071H264.333C263.968 23.9071 263.672 24.2038 263.672 24.5699V25.0077C263.672 25.3738 263.968 25.6705 264.333 25.6705H272.966C273.331 25.6705 273.627 25.3738 273.627 25.0077V24.5699C273.627 24.2038 273.331 23.9071 272.966 23.9071Z" fill="#CCCCCC"/>
<path d="M254.43 24.2773L252.991 23.519C252.955 23.5011 252.911 23.5011 252.876 23.519L251.436 24.2773C251.347 24.3251 251.242 24.2474 251.257 24.1479L251.533 22.5418C251.539 22.502 251.527 22.4602 251.498 22.4323L250.332 21.2939C250.259 21.2222 250.3 21.0988 250.4 21.0829L252.01 20.8481C252.05 20.8421 252.085 20.8162 252.103 20.7804L252.824 19.3175C252.87 19.226 252.999 19.226 253.044 19.3175L253.765 20.7804C253.783 20.8162 253.817 20.8421 253.858 20.8481L255.468 21.0829C255.57 21.0968 255.609 21.2222 255.536 21.2939L254.371 22.4323C254.341 22.4602 254.329 22.502 254.335 22.5418L254.609 24.1479C254.627 24.2494 254.521 24.3251 254.43 24.2773ZM251.257 21.5944L251.96 22.281C251.99 22.3089 252.002 22.3507 251.996 22.3905L251.829 23.3598C251.811 23.4613 251.917 23.5369 252.008 23.4891L252.878 23.0314C252.913 23.0115 252.957 23.0115 252.993 23.0314L253.862 23.4891C253.952 23.5369 254.057 23.4593 254.041 23.3598L253.874 22.3905C253.868 22.3507 253.88 22.3089 253.91 22.281L254.613 21.5944C254.686 21.5228 254.645 21.3994 254.545 21.3834L253.574 21.2421C253.535 21.2362 253.499 21.2103 253.481 21.1745L253.046 20.2928C253.001 20.2012 252.872 20.2012 252.826 20.2928L252.391 21.1745C252.373 21.2103 252.339 21.2362 252.298 21.2421L251.327 21.3834C251.226 21.3974 251.186 21.5228 251.259 21.5944H251.257Z" fill="#CCCCCC"/>
<path d="M52.9166 21.9586C52.8074 23.1269 51.8346 24.0484 50.6413 24.0484C49.3747 24.0484 48.3442 23.0155 48.3442 21.7457C48.3442 20.4759 49.3747 19.4429 50.6413 19.4429C51.1595 19.4429 51.636 19.6181 52.0192 19.9107L51.3998 20.2769L52.2733 20.7724L53.1469 21.268L53.141 20.4659V20.2609L53.131 19.2539L52.5096 19.6201C52.0212 19.1802 51.374 18.9275 50.6433 18.9275C49.0927 18.9275 47.834 20.1913 47.834 21.7457C47.834 23.3001 49.0947 24.5619 50.6433 24.5619C52.1919 24.5619 53.3336 23.4115 53.4428 21.9586H52.9186H52.9166Z" fill="#CCCCCC"/>
<path d="M31.631 20.9436H25.5338L27.1876 19.2857L26.054 18.1512L22.4941 21.7198L22.518 21.7457L22.4941 21.7696L26.054 25.3401L27.1876 24.2056L25.5338 22.5477H31.631V20.9436Z" fill="#CCCCCC"/>
<path d="M34.4902 20.9436H40.5894L38.9356 19.2857L40.0672 18.1512L43.6291 21.7198L43.6032 21.7457L43.6291 21.7696L40.0672 25.3401L38.9356 24.2056L40.5894 22.5477H34.4902V20.9436Z" fill="#CCCCCC"/>
<path d="M100.06 8.10239H98.5234V6.56192H97.5445V8.10239H96.0059V9.08359H97.5445V10.6241H98.5234V9.08359H100.06V8.10239Z" fill="#B3B3B3"/>
<path d="M91.6922 9.26869L91.0171 8.59399L91.6922 7.9173L91.2613 7.48541L90.5863 8.1621L89.9113 7.48541L89.4824 7.9173L90.1575 8.59399L89.4824 9.26869L89.9113 9.70058L90.5863 9.02389L91.2613 9.70058L91.6922 9.26869Z" fill="#CCCCCC"/>
<path d="M147.441 122.626V130.028H145.521V122.626H147.441Z" fill="url(#paint3_linear_69_4432)"/>
<path d="M148.82 124.991H150.593V125.63C150.836 125.335 151.08 125.138 151.328 125.037C151.576 124.935 151.866 124.885 152.2 124.885C152.553 124.885 152.855 124.943 153.105 125.057C153.357 125.172 153.569 125.333 153.746 125.542C153.889 125.713 153.988 125.902 154.04 126.111C154.092 126.32 154.117 126.559 154.117 126.828V130.028H152.344V127.485C152.344 127.236 152.327 127.035 152.291 126.882C152.255 126.728 152.192 126.605 152.1 126.513C152.023 126.436 151.933 126.38 151.836 126.346C151.739 126.314 151.634 126.296 151.522 126.296C151.223 126.296 150.992 126.386 150.832 126.567C150.671 126.748 150.591 127.005 150.591 127.337V130.028H148.818V124.993L148.82 124.991Z" fill="url(#paint4_linear_69_4432)"/>
<path d="M157.302 126.474V130.028H155.529V126.474H154.941V124.991H155.529V123.478H157.302V124.991H158.311V126.474H157.302Z" fill="url(#paint5_linear_69_4432)"/>
<path d="M160.672 127.809C160.672 128.575 161.031 128.957 161.75 128.957C162.135 128.957 162.425 128.8 162.621 128.486H164.335C163.989 129.638 163.124 130.213 161.74 130.213C161.315 130.213 160.928 130.15 160.574 130.022C160.221 129.895 159.919 129.714 159.669 129.477C159.417 129.242 159.224 128.959 159.087 128.633C158.95 128.307 158.881 127.938 158.881 127.534C158.881 127.13 158.946 126.738 159.077 126.4C159.208 126.064 159.393 125.777 159.635 125.54C159.878 125.305 160.169 125.122 160.511 124.995C160.854 124.867 161.24 124.804 161.672 124.804C162.105 124.804 162.478 124.867 162.818 124.995C163.157 125.122 163.445 125.307 163.68 125.55C163.914 125.793 164.095 126.089 164.218 126.438C164.341 126.788 164.404 127.182 164.404 127.62V127.807H160.674L160.672 127.809ZM162.748 126.778C162.689 126.529 162.57 126.33 162.385 126.179C162.202 126.028 161.98 125.954 161.72 125.954C161.446 125.954 161.222 126.026 161.049 126.169C160.876 126.312 160.767 126.515 160.721 126.778H162.748Z" fill="url(#paint6_linear_69_4432)"/>
<path d="M165.412 124.991H167.185V125.815C167.374 125.514 167.606 125.283 167.88 125.122C168.154 124.961 168.474 124.881 168.839 124.881H168.99C169.045 124.881 169.109 124.887 169.18 124.901V126.599C168.946 126.482 168.69 126.422 168.416 126.422C168.005 126.422 167.695 126.545 167.491 126.79C167.284 127.035 167.183 127.393 167.183 127.865V130.024H165.41V124.989L165.412 124.991Z" fill="url(#paint7_linear_69_4432)"/>
<path d="M169.975 124.991H171.748V125.63C171.99 125.335 172.234 125.138 172.482 125.037C172.73 124.935 173.02 124.885 173.354 124.885C173.707 124.885 174.009 124.943 174.259 125.057C174.511 125.172 174.724 125.333 174.9 125.542C175.043 125.713 175.143 125.902 175.194 126.111C175.246 126.32 175.272 126.559 175.272 126.828V130.028H173.499V127.485C173.499 127.236 173.481 127.035 173.445 126.882C173.409 126.728 173.346 126.605 173.255 126.513C173.177 126.436 173.088 126.38 172.99 126.346C172.893 126.314 172.788 126.296 172.677 126.296C172.377 126.296 172.147 126.386 171.986 126.567C171.825 126.748 171.746 127.005 171.746 127.337V130.028H169.973V124.993L169.975 124.991Z" fill="url(#paint8_linear_69_4432)"/>
<path d="M180.355 124.991H182.138V130.026H180.355V129.467C179.976 129.945 179.464 130.183 178.819 130.183C178.453 130.183 178.116 130.116 177.81 129.982C177.502 129.849 177.236 129.66 177.008 129.417C176.78 129.174 176.601 128.89 176.474 128.563C176.347 128.237 176.283 127.879 176.283 127.493C176.283 127.132 176.345 126.79 176.47 126.468C176.593 126.143 176.768 125.861 176.988 125.618C177.21 125.375 177.474 125.184 177.782 125.043C178.09 124.901 178.429 124.832 178.801 124.832C179.428 124.832 179.946 125.051 180.357 125.488V124.987L180.355 124.991ZM178.122 127.495C178.122 127.658 178.151 127.811 178.209 127.95C178.269 128.092 178.348 128.213 178.449 128.319C178.551 128.424 178.672 128.506 178.813 128.563C178.954 128.623 179.104 128.651 179.267 128.651C179.43 128.651 179.573 128.621 179.712 128.563C179.853 128.504 179.972 128.422 180.073 128.319C180.175 128.213 180.256 128.094 180.318 127.954C180.379 127.817 180.411 127.67 180.411 127.513C180.411 127.355 180.379 127.206 180.318 127.067C180.256 126.925 180.175 126.804 180.073 126.698C179.972 126.593 179.851 126.511 179.712 126.454C179.571 126.394 179.422 126.366 179.267 126.366C179.112 126.366 178.952 126.396 178.813 126.454C178.672 126.513 178.551 126.595 178.449 126.698C178.348 126.804 178.269 126.923 178.209 127.057C178.149 127.19 178.122 127.337 178.122 127.495Z" fill="url(#paint9_linear_69_4432)"/>
<path d="M185.115 121.88V130.028H183.342V121.88H185.115Z" fill="url(#paint10_linear_69_4432)"/>
<path d="M193.88 124.521C193.671 124.352 193.463 124.225 193.253 124.143C193.044 124.061 192.842 124.02 192.645 124.02C192.397 124.02 192.194 124.079 192.038 124.197C191.881 124.314 191.803 124.467 191.803 124.658C191.803 124.79 191.843 124.897 191.92 124.983C191.998 125.068 192.101 125.142 192.228 125.204C192.355 125.265 192.498 125.319 192.659 125.365C192.82 125.411 192.977 125.461 193.133 125.512C193.761 125.721 194.219 126.002 194.509 126.352C194.799 126.702 194.944 127.158 194.944 127.721C194.944 128.102 194.881 128.444 194.754 128.752C194.626 129.061 194.44 129.324 194.196 129.543C193.951 129.762 193.65 129.933 193.294 130.054C192.939 130.175 192.536 130.235 192.085 130.235C191.152 130.235 190.286 129.957 189.49 129.401L190.312 127.851C190.6 128.106 190.884 128.297 191.164 128.42C191.444 128.543 191.722 128.607 191.996 128.607C192.31 128.607 192.542 128.536 192.697 128.39C192.85 128.247 192.927 128.082 192.927 127.899C192.927 127.787 192.907 127.692 192.867 127.608C192.828 127.526 192.762 127.451 192.671 127.383C192.58 127.313 192.46 127.25 192.313 127.192C192.167 127.132 191.988 127.069 191.779 126.995C191.531 126.917 191.289 126.83 191.051 126.734C190.813 126.639 190.6 126.513 190.413 126.356C190.227 126.199 190.078 126.002 189.963 125.763C189.848 125.524 189.792 125.222 189.792 124.856C189.792 124.489 189.852 124.157 189.973 123.858C190.094 123.56 190.263 123.305 190.483 123.092C190.701 122.879 190.969 122.714 191.285 122.597C191.601 122.479 191.956 122.419 192.347 122.419C192.713 122.419 193.094 122.471 193.493 122.571C193.892 122.672 194.273 122.821 194.638 123.016L193.874 124.519L193.88 124.521Z" fill="url(#paint11_linear_69_4432)"/>
<path d="M197.58 127.809C197.58 128.575 197.939 128.957 198.658 128.957C199.043 128.957 199.333 128.8 199.53 128.486H201.243C200.898 129.638 200.032 130.213 198.648 130.213C198.223 130.213 197.836 130.15 197.483 130.022C197.129 129.895 196.827 129.714 196.577 129.477C196.325 129.242 196.133 128.959 195.996 128.633C195.859 128.307 195.789 127.938 195.789 127.534C195.789 127.13 195.855 126.738 195.986 126.4C196.117 126.064 196.301 125.777 196.544 125.54C196.786 125.305 197.078 125.122 197.419 124.995C197.763 124.867 198.148 124.804 198.581 124.804C199.013 124.804 199.387 124.867 199.726 124.995C200.066 125.122 200.354 125.307 200.588 125.55C200.822 125.793 201.003 126.089 201.126 126.438C201.249 126.788 201.312 127.182 201.312 127.62V127.807H197.582L197.58 127.809ZM199.657 126.778C199.597 126.529 199.478 126.33 199.293 126.179C199.111 126.028 198.888 125.954 198.628 125.954C198.354 125.954 198.13 126.026 197.957 126.169C197.784 126.312 197.675 126.515 197.63 126.778H199.657Z" fill="url(#paint12_linear_69_4432)"/>
<path d="M202.322 124.991H204.095V125.815C204.284 125.514 204.516 125.283 204.79 125.122C205.064 124.961 205.384 124.881 205.749 124.881H205.9C205.956 124.881 206.019 124.887 206.091 124.901V126.599C205.856 126.482 205.6 126.422 205.326 126.422C204.915 126.422 204.606 126.545 204.401 126.79C204.195 127.035 204.093 127.393 204.093 127.865V130.024H202.32V124.989L202.322 124.991Z" fill="url(#paint13_linear_69_4432)"/>
<path d="M208.579 124.991L209.775 127.572L210.99 124.991H212.967L210.352 130.026H209.167L206.582 124.991H208.579Z" fill="url(#paint14_linear_69_4432)"/>
<path d="M214.935 127.809C214.935 128.575 215.295 128.957 216.013 128.957C216.399 128.957 216.688 128.8 216.885 128.486H218.598C218.253 129.638 217.387 130.213 216.003 130.213C215.579 130.213 215.191 130.15 214.838 130.022C214.485 129.895 214.183 129.714 213.933 129.477C213.681 129.242 213.488 128.959 213.351 128.633C213.214 128.307 213.145 127.938 213.145 127.534C213.145 127.13 213.21 126.738 213.341 126.4C213.472 126.064 213.657 125.777 213.899 125.54C214.141 125.305 214.433 125.122 214.775 124.995C215.118 124.867 215.503 124.804 215.936 124.804C216.369 124.804 216.742 124.867 217.082 124.995C217.421 125.122 217.709 125.307 217.943 125.55C218.178 125.793 218.358 126.089 218.481 126.438C218.604 126.788 218.668 127.182 218.668 127.62V127.807H214.937L214.935 127.809ZM217.012 126.778C216.953 126.529 216.833 126.33 216.649 126.179C216.466 126.028 216.244 125.954 215.984 125.954C215.71 125.954 215.485 126.026 215.313 126.169C215.14 126.312 215.031 126.515 214.985 126.778H217.012Z" fill="url(#paint15_linear_69_4432)"/>
<path d="M219.674 124.991H221.447V125.815C221.635 125.514 221.868 125.283 222.142 125.122C222.416 124.961 222.735 124.881 223.101 124.881H223.252C223.307 124.881 223.371 124.887 223.442 124.901V126.599C223.208 126.482 222.952 126.422 222.678 126.422C222.267 126.422 221.957 126.545 221.753 126.79C221.546 127.035 221.445 127.393 221.445 127.865V130.024H219.672V124.989L219.674 124.991Z" fill="url(#paint16_linear_69_4432)"/>
<path d="M231.926 124.254H229.645V125.49H231.799V127.12H229.645V128.396H231.926V130.026H227.725V122.624H231.926V124.254Z" fill="url(#paint17_linear_69_4432)"/>
<path d="M233.141 124.991H234.914V125.815C235.102 125.514 235.335 125.283 235.609 125.122C235.882 124.961 236.202 124.881 236.567 124.881H236.718C236.774 124.881 236.837 124.887 236.909 124.901V126.599C236.675 126.482 236.419 126.422 236.145 126.422C235.734 126.422 235.424 126.545 235.219 126.79C235.013 127.035 234.912 127.393 234.912 127.865V130.024H233.139V124.989L233.141 124.991Z" fill="url(#paint18_linear_69_4432)"/>
<path d="M237.703 124.991H239.476V125.815C239.665 125.514 239.897 125.283 240.171 125.122C240.445 124.961 240.765 124.881 241.13 124.881H241.281C241.336 124.881 241.4 124.887 241.471 124.901V126.599C241.237 126.482 240.981 126.422 240.707 126.422C240.296 126.422 239.986 126.545 239.782 126.79C239.575 127.035 239.474 127.393 239.474 127.865V130.024H237.701V124.989L237.703 124.991Z" fill="url(#paint19_linear_69_4432)"/>
<path d="M242.111 127.465C242.111 127.093 242.187 126.742 242.336 126.42C242.487 126.095 242.695 125.815 242.963 125.576C243.231 125.337 243.549 125.148 243.918 125.011C244.287 124.873 244.69 124.804 245.127 124.804C245.564 124.804 245.957 124.871 246.326 125.005C246.696 125.138 247.015 125.325 247.285 125.564C247.555 125.803 247.766 126.087 247.917 126.418C248.068 126.748 248.141 127.112 248.141 127.513C248.141 127.913 248.064 128.277 247.911 128.607C247.758 128.938 247.547 129.222 247.279 129.461C247.011 129.7 246.69 129.885 246.314 130.016C245.939 130.148 245.532 130.213 245.095 130.213C244.659 130.213 244.266 130.148 243.9 130.016C243.535 129.885 243.219 129.7 242.955 129.457C242.691 129.214 242.483 128.926 242.334 128.587C242.183 128.251 242.109 127.875 242.109 127.463L242.111 127.465ZM243.982 127.485C243.982 127.656 244.013 127.811 244.075 127.95C244.136 128.092 244.218 128.213 244.319 128.319C244.42 128.424 244.541 128.506 244.682 128.563C244.823 128.623 244.97 128.651 245.127 128.651C245.284 128.651 245.433 128.621 245.572 128.563C245.713 128.504 245.832 128.422 245.935 128.319C246.036 128.213 246.118 128.092 246.179 127.95C246.241 127.809 246.273 127.658 246.273 127.495C246.273 127.331 246.241 127.188 246.179 127.049C246.118 126.907 246.036 126.786 245.935 126.681C245.834 126.575 245.713 126.493 245.572 126.436C245.431 126.376 245.282 126.348 245.127 126.348C244.972 126.348 244.821 126.378 244.682 126.436C244.541 126.495 244.42 126.577 244.319 126.681C244.218 126.786 244.136 126.905 244.075 127.045C244.013 127.182 243.982 127.329 243.982 127.487V127.485Z" fill="url(#paint20_linear_69_4432)"/>
<path d="M249.162 124.991H250.935V125.815C251.124 125.514 251.356 125.283 251.63 125.122C251.904 124.961 252.224 124.881 252.589 124.881H252.74C252.795 124.881 252.859 124.887 252.93 124.901V126.599C252.696 126.482 252.44 126.422 252.166 126.422C251.755 126.422 251.445 126.545 251.241 126.79C251.034 127.035 250.933 127.393 250.933 127.865V130.024H249.16V124.989L249.162 124.991Z" fill="url(#paint21_linear_69_4432)"/>
<path d="M175.046 86.9827H161.787L161.126 91.21C161.736 91.1423 162.293 91.0826 162.802 91.0309C163.31 90.9791 163.834 90.9553 164.376 90.9553C166.306 90.9553 168.101 91.2956 169.761 91.9743C171.42 92.653 172.842 93.5864 174.027 94.7746C175.213 95.9628 176.144 97.3898 176.821 99.0517C177.498 100.716 177.837 102.533 177.837 104.501C177.837 106.573 177.456 108.44 176.694 110.104C175.931 111.768 174.855 113.185 173.467 114.355C172.078 115.525 170.386 116.427 168.387 117.054C166.387 117.681 164.17 117.995 161.732 117.995C159.429 117.995 157.237 117.714 155.154 117.155C153.071 116.596 151.116 115.738 149.287 114.584L150.76 105.214C152.454 106.674 154.181 107.785 155.942 108.549C157.703 109.313 159.379 109.696 160.971 109.696C163.002 109.696 164.61 109.144 165.798 108.04C166.983 106.937 167.577 105.57 167.577 103.94C167.577 102.039 166.781 100.503 165.188 99.3303C163.596 98.158 161.513 97.5729 158.94 97.5729C157.789 97.5729 156.603 97.7003 155.384 97.955C154.165 98.2098 152.962 98.6098 151.777 99.1512L154.977 78.528H175.044V86.9807L175.046 86.9827Z" fill="url(#paint22_linear_69_4432)"/>
<path d="M182.158 97.6764C182.158 94.6213 182.555 91.8449 183.351 89.3511C184.148 86.8553 185.263 84.7257 186.705 82.9604C188.144 81.195 189.854 79.8277 191.835 78.8604C193.817 77.8931 196.008 77.4095 198.413 77.4095C200.817 77.4095 202.967 77.8931 204.967 78.8604C206.964 79.8277 208.675 81.195 210.097 82.9604C211.518 84.7257 212.628 86.8553 213.424 89.3511C214.221 91.8469 214.618 94.6213 214.618 97.6764C214.618 100.731 214.219 103.508 213.424 106.002C212.628 108.497 211.52 110.635 210.097 112.418C208.675 114.202 206.964 115.575 204.967 116.544C202.967 117.511 200.783 117.995 198.413 117.995C196.042 117.995 193.815 117.511 191.835 116.544C189.854 115.577 188.144 114.202 186.705 112.418C185.265 110.635 184.148 108.497 183.351 106.002C182.555 103.506 182.158 100.731 182.158 97.6764ZM192.014 97.6764C192.014 99.3741 192.167 100.919 192.47 102.31C192.776 103.703 193.207 104.907 193.767 105.926C194.325 106.945 194.994 107.733 195.774 108.294C196.552 108.854 197.434 109.134 198.417 109.134C199.399 109.134 200.237 108.854 201.033 108.294C201.83 107.735 202.499 106.945 203.041 105.926C203.583 104.907 204.006 103.703 204.311 102.31C204.617 100.919 204.768 99.3741 204.768 97.6764C204.768 95.9787 204.615 94.476 204.311 93.0669C204.006 91.6578 203.583 90.4537 203.041 89.4506C202.499 88.4495 201.83 87.6673 201.033 87.1081C200.237 86.5488 199.366 86.2682 198.417 86.2682C197.468 86.2682 196.554 86.5488 195.774 87.1081C194.994 87.6673 194.327 88.4495 193.767 89.4506C193.209 90.4517 192.776 91.6578 192.47 93.0669C192.167 94.476 192.014 96.0125 192.014 97.6764Z" fill="url(#paint23_linear_69_4432)"/>
<path d="M216.701 97.6764C216.701 94.6213 217.098 91.8449 217.894 89.3511C218.691 86.8553 219.806 84.7257 221.248 82.9604C222.687 81.195 224.397 79.8277 226.378 78.8604C228.359 77.8931 230.551 77.4095 232.956 77.4095C235.36 77.4095 237.51 77.8931 239.51 78.8604C241.507 79.8277 243.218 81.195 244.64 82.9604C246.061 84.7257 247.171 86.8553 247.967 89.3511C248.763 91.8469 249.161 94.6213 249.161 97.6764C249.161 100.731 248.761 103.508 247.967 106.002C247.171 108.497 246.063 110.635 244.64 112.418C243.218 114.202 241.507 115.575 239.51 116.544C237.51 117.511 235.326 117.995 232.956 117.995C230.585 117.995 228.357 117.511 226.378 116.544C224.397 115.577 222.687 114.202 221.248 112.418C219.808 110.635 218.691 108.497 217.894 106.002C217.098 103.506 216.701 100.731 216.701 97.6764ZM226.557 97.6764C226.557 99.3741 226.71 100.919 227.013 102.31C227.319 103.703 227.75 104.907 228.31 105.926C228.868 106.945 229.537 107.733 230.317 108.294C231.095 108.854 231.977 109.134 232.96 109.134C233.942 109.134 234.78 108.854 235.576 108.294C236.373 107.735 237.042 106.945 237.584 105.926C238.126 104.907 238.549 103.703 238.854 102.31C239.16 100.919 239.311 99.3741 239.311 97.6764C239.311 95.9787 239.158 94.476 238.854 93.0669C238.549 91.6578 238.126 90.4537 237.584 89.4506C237.042 88.4495 236.373 87.6673 235.576 87.1081C234.78 86.5488 233.909 86.2682 232.96 86.2682C232.011 86.2682 231.097 86.5488 230.317 87.1081C229.537 87.6673 228.87 88.4495 228.31 89.4506C227.752 90.4517 227.319 91.6578 227.013 93.0669C226.71 94.476 226.557 96.0125 226.557 97.6764Z" fill="url(#paint24_linear_69_4432)"/>
<path d="M116.268 150.009L51.1229 149.939C49.1355 149.937 47.5273 148.321 47.5273 146.328L47.575 61.2426C47.575 59.2463 49.1951 57.6302 51.1864 57.6362L116.332 57.8452C118.315 57.8511 119.921 59.4652 119.919 61.4555L119.872 146.404C119.872 148.398 118.257 150.012 116.268 150.01V150.009Z" fill="#5D1B23"/>
<path d="M111.604 143.892L55.8203 143.803V142.493L111.604 142.583V143.892Z" fill="#48202B"/>
<path d="M111.608 135.167L55.8262 135.068V133.756L111.608 133.859V135.167Z" fill="#48202B"/>
<path d="M79.3868 137.729L111.606 137.784L111.604 141.275L79.3848 141.221L79.3868 137.729Z" fill="url(#paint25_linear_69_4432)"/>
<path d="M79.3867 137.1L111.608 137.157V136.59L79.3867 136.534V137.1Z" fill="url(#paint26_linear_69_4432)"/>
<path d="M61.627 137.068L65.6136 137.076V136.509L61.627 136.503V137.068Z" fill="url(#paint27_linear_69_4432)"/>
<path d="M67.4277 137.078L71.4144 137.086L71.4164 136.518L67.4277 136.513V137.078Z" fill="url(#paint28_linear_69_4432)"/>
<path d="M55.8242 137.058L59.8129 137.066V136.499L55.8242 136.493V137.058Z" fill="url(#paint29_linear_69_4432)"/>
<path d="M71.4137 137.715L55.8243 137.689L55.8223 141.182L71.4117 141.208L71.4137 137.715Z" fill="url(#paint30_linear_69_4432)"/>
<path d="M76.8499 137.725L73.9512 137.719L73.9492 141.212L76.8479 141.217L76.8499 137.725Z" fill="white"/>
<path d="M111.608 135.167L55.8262 135.068V133.756L111.608 133.859V135.167Z" fill="#48202B"/>
<path d="M111.614 126.444L55.8301 126.332V125.021L111.614 125.134V126.444Z" fill="#48202B"/>
<path d="M79.3907 128.997L111.612 129.061L111.61 132.55L79.3887 132.49L79.3907 128.997Z" fill="url(#paint31_linear_69_4432)"/>
<path d="M79.3906 128.368L111.612 128.432V127.865L79.3906 127.803V128.368Z" fill="url(#paint32_linear_69_4432)"/>
<path d="M61.6309 128.334L65.6195 128.342V127.775L61.6309 127.767V128.334Z" fill="url(#paint33_linear_69_4432)"/>
<path d="M67.4336 128.344L71.4203 128.352V127.787L67.4336 127.779V128.344Z" fill="url(#paint34_linear_69_4432)"/>
<path d="M55.8281 128.323L59.8188 128.331V127.763L55.8301 127.755L55.8281 128.323Z" fill="url(#paint35_linear_69_4432)"/>
<path d="M71.4195 128.983L55.8282 128.951L55.8262 132.446L71.4176 132.476L71.4195 128.983Z" fill="url(#paint36_linear_69_4432)"/>
<path d="M76.8558 128.993L73.9551 128.987L73.9531 132.48L76.8538 132.486L76.8558 128.993Z" fill="white"/>
<path d="M111.614 126.444L55.8301 126.332V125.021L111.614 125.134V126.444Z" fill="#48202B"/>
<path d="M111.618 117.718L55.8359 117.595V116.285L111.618 116.409V117.718Z" fill="#48202B"/>
<path d="M79.3965 120.266L111.616 120.336L111.614 123.827L79.3945 123.759L79.3965 120.266Z" fill="url(#paint37_linear_69_4432)"/>
<path d="M79.3965 119.637L111.618 119.707V119.141L79.3965 119.072V119.637Z" fill="url(#paint38_linear_69_4432)"/>
<path d="M61.6348 119.599L65.6234 119.607V119.042L61.6368 119.032L61.6348 119.599Z" fill="url(#paint39_linear_69_4432)"/>
<path d="M67.4375 119.611L71.4242 119.621L71.4262 119.054L67.4375 119.046V119.611Z" fill="url(#paint40_linear_69_4432)"/>
<path d="M55.834 119.587L59.8227 119.595V119.028L55.834 119.02V119.587Z" fill="url(#paint41_linear_69_4432)"/>
<path d="M71.4234 120.25L55.834 120.216L55.832 123.711L71.4214 123.743L71.4234 120.25Z" fill="url(#paint42_linear_69_4432)"/>
<path d="M76.8597 120.262L73.961 120.256L73.959 123.749L76.8577 123.755L76.8597 120.262Z" fill="white"/>
<path d="M111.618 117.718L55.8359 117.595V116.285L111.618 116.409V117.718Z" fill="#48202B"/>
<path d="M111.624 108.993L55.8398 108.86V107.55L111.624 107.685V108.993Z" fill="#48202B"/>
<path d="M79.4004 111.537L111.622 111.61L111.62 115.101L79.3984 115.028L79.4004 111.537Z" fill="url(#paint43_linear_69_4432)"/>
<path d="M79.4004 110.906L111.622 110.983V110.416L79.4004 110.34V110.906Z" fill="url(#paint44_linear_69_4432)"/>
<path d="M61.6406 110.864L65.6293 110.874V110.307L61.6406 110.299V110.864Z" fill="url(#paint45_linear_69_4432)"/>
<path d="M67.4434 110.878L71.4301 110.888V110.321L67.4434 110.313V110.878Z" fill="url(#paint46_linear_69_4432)"/>
<path d="M55.8379 110.852L59.8286 110.86V110.295L55.8399 110.285L55.8379 110.852Z" fill="url(#paint47_linear_69_4432)"/>
<path d="M71.4293 111.517L55.8379 111.481L55.8359 114.976L71.4273 115.01L71.4293 111.517Z" fill="url(#paint48_linear_69_4432)"/>
<path d="M76.8656 111.531L73.9649 111.523L73.9629 115.016L76.8636 115.022L76.8656 111.531Z" fill="white"/>
<path d="M111.624 108.993L55.8398 108.86V107.55L111.624 107.685V108.993Z" fill="#48202B"/>
<path d="M111.628 100.27L55.8457 100.124V98.8128L111.628 98.9601V100.27Z" fill="#48202B"/>
<path d="M79.4063 102.805L111.625 102.887L111.623 106.376L79.4043 106.296L79.4063 102.805Z" fill="url(#paint49_linear_69_4432)"/>
<path d="M79.4062 102.176L111.625 102.258L111.627 101.693L79.4062 101.609V102.176Z" fill="url(#paint50_linear_69_4432)"/>
<path d="M61.6445 102.131L65.6332 102.141V101.573L61.6465 101.563L61.6445 102.131Z" fill="url(#paint51_linear_69_4432)"/>
<path d="M67.4473 102.145L71.434 102.154L71.4359 101.589L67.4473 101.579V102.145Z" fill="url(#paint52_linear_69_4432)"/>
<path d="M55.8438 102.115L59.8324 102.125V101.559L55.8438 101.549V102.115Z" fill="url(#paint53_linear_69_4432)"/>
<path d="M71.4332 102.785L55.8438 102.746L55.8418 106.239L71.4312 106.278L71.4332 102.785Z" fill="url(#paint54_linear_69_4432)"/>
<path d="M76.8694 102.797L73.9707 102.791L73.9688 106.284L76.8674 106.29L76.8694 102.797Z" fill="white"/>
<path d="M111.628 100.27L55.8457 100.124V98.8128L111.628 98.9601V100.27Z" fill="#48202B"/>
<path d="M111.634 91.5444L55.8496 91.3891V90.0775L111.634 90.2368V91.5444Z" fill="#48202B"/>
<path d="M79.4102 94.074L111.631 94.1616L111.629 97.6525L79.4082 97.5669L79.4102 94.074Z" fill="url(#paint55_linear_69_4432)"/>
<path d="M79.4102 93.4451L111.631 93.5327V92.9674L79.4102 92.8779V93.4451Z" fill="url(#paint56_linear_69_4432)"/>
<path d="M61.6504 93.3953L65.6391 93.4073V92.84L61.6504 92.8281V93.3953Z" fill="url(#paint57_linear_69_4432)"/>
<path d="M67.4531 93.4112L71.4398 93.4232V92.856L67.4531 92.844V93.4112Z" fill="url(#paint58_linear_69_4432)"/>
<path d="M55.8477 93.3794L59.8383 93.3913V92.8241L55.8496 92.8122L55.8477 93.3794Z" fill="url(#paint59_linear_69_4432)"/>
<path d="M71.4391 94.0521L55.8477 94.0083L55.8457 97.5032L71.4371 97.545L71.4391 94.0521Z" fill="url(#paint60_linear_69_4432)"/>
<path d="M76.8753 94.066L73.9746 94.0581L73.9727 97.551L76.8733 97.559L76.8753 94.066Z" fill="white"/>
<path d="M111.634 91.5444L55.8496 91.3891V90.0775L111.634 90.2368V91.5444Z" fill="#48202B"/>
<path d="M111.637 82.821L55.8555 82.6519V81.3423L111.637 81.5114V82.821Z" fill="#48202B"/>
<path d="M79.416 85.3427L111.635 85.4382L111.633 88.9272L79.4141 88.8356L79.416 85.3427Z" fill="url(#paint61_linear_69_4432)"/>
<path d="M79.416 84.7138L111.635 84.8093L111.637 84.2421L79.416 84.1465V84.7138Z" fill="url(#paint62_linear_69_4432)"/>
<path d="M61.6543 84.66L65.643 84.672V84.1067L61.6563 84.0948L61.6543 84.66Z" fill="url(#paint63_linear_69_4432)"/>
<path d="M67.457 84.6779L71.4437 84.6899L71.4457 84.1227L67.457 84.1107V84.6779Z" fill="url(#paint64_linear_69_4432)"/>
<path d="M55.8535 84.6441L59.8422 84.6561V84.0888L55.8535 84.0769V84.6441Z" fill="url(#paint65_linear_69_4432)"/>
<path d="M71.4429 85.3188L55.8535 85.273L55.8516 88.768L71.441 88.8117L71.4429 85.3188Z" fill="url(#paint66_linear_69_4432)"/>
<path d="M76.8792 85.3347L73.9805 85.3268L73.9785 88.8197L76.8772 88.8277L76.8792 85.3347Z" fill="white"/>
<path d="M111.637 82.821L55.8555 82.6519V81.3423L111.637 81.5114V82.821Z" fill="#48202B"/>
<path d="M111.641 74.0957L55.8594 73.9166V72.607L111.643 72.7861L111.641 74.0957Z" fill="#48202B"/>
<path d="M79.42 76.6114L111.641 76.7129L111.639 80.2018L79.418 80.1043L79.42 76.6114Z" fill="url(#paint67_linear_69_4432)"/>
<path d="M79.4199 75.9825L111.641 76.084V75.5187L79.4199 75.4152V75.9825Z" fill="url(#paint68_linear_69_4432)"/>
<path d="M61.6602 75.9267L65.6488 75.9387V75.3715L61.6602 75.3595V75.9267Z" fill="url(#paint69_linear_69_4432)"/>
<path d="M67.4629 75.9446L71.4496 75.9566V75.3914L67.4629 75.3774V75.9446Z" fill="url(#paint70_linear_69_4432)"/>
<path d="M55.8574 75.9088L59.8481 75.9208V75.3535L55.8594 75.3416L55.8574 75.9088Z" fill="url(#paint71_linear_69_4432)"/>
<path d="M71.4488 76.5855L55.8575 76.5378L55.8555 80.0327L71.4469 80.0804L71.4488 76.5855Z" fill="url(#paint72_linear_69_4432)"/>
<path d="M76.8851 76.6034L73.9844 76.5935L73.9824 80.0864L76.8831 80.0963L76.8851 76.6034Z" fill="white"/>
<path d="M111.641 74.0957L55.8594 73.9166V72.607L111.643 72.7861L111.641 74.0957Z" fill="#48202B"/>
<path d="M111.647 65.3704L55.8633 65.1813L55.8653 63.8697L111.647 64.0628V65.3704Z" fill="#48202B"/>
<path d="M79.4239 67.8801L111.645 67.9876L111.643 71.4785L79.4219 71.373L79.4239 67.8801Z" fill="url(#paint73_linear_69_4432)"/>
<path d="M79.4258 67.2512L111.645 67.3606L111.647 66.7934L79.4258 66.6859V67.2512Z" fill="url(#paint74_linear_69_4432)"/>
<path d="M61.6641 67.1915L65.6527 67.2054V66.6382L61.666 66.6242L61.6641 67.1915Z" fill="url(#paint75_linear_69_4432)"/>
<path d="M67.4668 67.2114L71.4535 67.2253V66.6581L67.4668 66.6441V67.2114Z" fill="url(#paint76_linear_69_4432)"/>
<path d="M55.8633 67.1716L59.852 67.1855V66.6183L55.8633 66.6063V67.1716Z" fill="url(#paint77_linear_69_4432)"/>
<path d="M71.4527 67.8542L55.8633 67.8025L55.8613 71.2954L71.4507 71.3471L71.4527 67.8542Z" fill="url(#paint78_linear_69_4432)"/>
<path d="M76.889 67.8721L73.9903 67.8622L73.9883 71.3551L76.887 71.3651L76.889 67.8721Z" fill="white"/>
<path d="M93.307 126.925C90.7299 126.925 88.4229 125.59 87.1344 123.353C85.8458 121.116 85.8458 118.445 87.1344 116.208L105.517 84.2898C106.806 82.0528 109.113 80.7173 111.69 80.7173C114.267 80.7173 116.574 82.0528 117.862 84.2898L136.245 116.208C137.534 118.445 137.534 121.116 136.245 123.353C134.957 125.59 132.65 126.925 130.073 126.925H93.307Z" fill="url(#paint79_linear_69_4432)"/>
<path d="M108.454 85.9895C109.893 83.4917 113.489 83.4917 114.926 85.9895L124.119 101.949L133.311 117.909C134.751 120.407 132.952 123.53 130.075 123.53H93.3093C90.4325 123.53 88.6337 120.407 90.0731 117.909L99.2655 101.949L108.458 85.9895H108.454Z" fill="url(#paint80_linear_69_4432)"/>
<path d="M110.1 107.751L109.637 100.805C109.55 99.4517 109.506 98.4805 109.506 97.8913C109.506 97.0893 109.716 96.4623 110.135 96.0145C110.554 95.5647 111.106 95.3398 111.791 95.3398C112.621 95.3398 113.175 95.6284 113.455 96.2016C113.735 96.7768 113.874 97.6047 113.874 98.6874C113.874 99.3263 113.84 99.9732 113.773 100.63L113.151 107.779C113.084 108.629 112.939 109.282 112.716 109.735C112.494 110.189 112.129 110.416 111.616 110.416C111.104 110.416 110.735 110.197 110.532 109.757C110.33 109.317 110.185 108.649 110.098 107.749L110.1 107.751ZM111.706 117.292C111.118 117.292 110.604 117.101 110.165 116.719C109.726 116.337 109.508 115.804 109.508 115.117C109.508 114.518 109.718 114.009 110.137 113.587C110.556 113.167 111.07 112.956 111.678 112.956C112.285 112.956 112.804 113.167 113.232 113.587C113.661 114.007 113.876 114.516 113.876 115.117C113.876 115.794 113.659 116.325 113.225 116.711C112.79 117.097 112.283 117.29 111.706 117.29V117.292Z" fill="#603813"/>
</g>
<defs>
<linearGradient id="paint0_linear_69_4432" x1="77.9883" y1="243.812" x2="222.012" y2="243.812" gradientUnits="userSpaceOnUse">
<stop stop-color="#212123"/>
<stop offset="0.44" stop-color="#69696A"/>
<stop offset="0.52" stop-color="#616162"/>
<stop offset="0.64" stop-color="#4D4D4E"/>
<stop offset="0.78" stop-color="#2F2F2F"/>
<stop offset="1" stop-color="#656565"/>
</linearGradient>
<linearGradient id="paint1_linear_69_4432" x1="150" y1="183.905" x2="150" y2="244.148" gradientUnits="userSpaceOnUse">
<stop stop-color="#212123"/>
<stop offset="0.49" stop-color="#69696A"/>
<stop offset="0.56" stop-color="#616162"/>
<stop offset="0.66" stop-color="#4D4D4E"/>
<stop offset="0.78" stop-color="#2F2F2F"/>
<stop offset="1" stop-color="#656565"/>
</linearGradient>
<linearGradient id="paint2_linear_69_4432" x1="3.31133" y1="15.8167" x2="305.053" y2="207.485" gradientUnits="userSpaceOnUse">
<stop stop-color="#212123"/>
<stop offset="0.44" stop-color="#69696A"/>
<stop offset="0.52" stop-color="#616162"/>
<stop offset="0.64" stop-color="#4D4D4E"/>
<stop offset="0.78" stop-color="#2F2F2F"/>
<stop offset="1" stop-color="#656565"/>
</linearGradient>
<linearGradient id="paint3_linear_69_4432" x1="146.48" y1="80.1063" x2="146.48" y2="132.504" gradientUnits="userSpaceOnUse">
<stop stop-color="#FF6C6C"/>
<stop offset="0.28" stop-color="#F85758"/>
<stop offset="0.85" stop-color="#E62425"/>
<stop offset="1" stop-color="#E21617"/>
</linearGradient>
<linearGradient id="paint4_linear_69_4432" x1="151.471" y1="80.1063" x2="151.471" y2="132.504" gradientUnits="userSpaceOnUse">
<stop stop-color="#FF6C6C"/>
<stop offset="0.28" stop-color="#F85758"/>
<stop offset="0.85" stop-color="#E62425"/>
<stop offset="1" stop-color="#E21617"/>
</linearGradient>
<linearGradient id="paint5_linear_69_4432" x1="156.625" y1="80.1063" x2="156.625" y2="132.504" gradientUnits="userSpaceOnUse">
<stop stop-color="#FF6C6C"/>
<stop offset="0.28" stop-color="#F85758"/>
<stop offset="0.85" stop-color="#E62425"/>
<stop offset="1" stop-color="#E21617"/>
</linearGradient>
<linearGradient id="paint6_linear_69_4432" x1="161.641" y1="80.1063" x2="161.641" y2="132.504" gradientUnits="userSpaceOnUse">
<stop stop-color="#FF6C6C"/>
<stop offset="0.28" stop-color="#F85758"/>
<stop offset="0.85" stop-color="#E62425"/>
<stop offset="1" stop-color="#E21617"/>
</linearGradient>
<linearGradient id="paint7_linear_69_4432" x1="167.296" y1="80.1064" x2="167.296" y2="132.504" gradientUnits="userSpaceOnUse">
<stop stop-color="#FF6C6C"/>
<stop offset="0.28" stop-color="#F85758"/>
<stop offset="0.85" stop-color="#E62425"/>
<stop offset="1" stop-color="#E21617"/>
</linearGradient>
<linearGradient id="paint8_linear_69_4432" x1="172.625" y1="80.1063" x2="172.625" y2="132.504" gradientUnits="userSpaceOnUse">
<stop stop-color="#FF6C6C"/>
<stop offset="0.28" stop-color="#F85758"/>
<stop offset="0.85" stop-color="#E62425"/>
<stop offset="1" stop-color="#E21617"/>
</linearGradient>
<linearGradient id="paint9_linear_69_4432" x1="179.21" y1="80.1064" x2="179.21" y2="132.504" gradientUnits="userSpaceOnUse">
<stop stop-color="#FF6C6C"/>
<stop offset="0.28" stop-color="#F85758"/>
<stop offset="0.85" stop-color="#E62425"/>
<stop offset="1" stop-color="#E21617"/>
</linearGradient>
<linearGradient id="paint10_linear_69_4432" x1="184.229" y1="80.1063" x2="184.229" y2="132.504" gradientUnits="userSpaceOnUse">
<stop stop-color="#FF6C6C"/>
<stop offset="0.28" stop-color="#F85758"/>
<stop offset="0.85" stop-color="#E62425"/>
<stop offset="1" stop-color="#E21617"/>
</linearGradient>
<linearGradient id="paint11_linear_69_4432" x1="192.22" y1="80.1064" x2="192.22" y2="132.504" gradientUnits="userSpaceOnUse">
<stop stop-color="#FF6C6C"/>
<stop offset="0.28" stop-color="#F85758"/>
<stop offset="0.85" stop-color="#E62425"/>
<stop offset="1" stop-color="#E21617"/>
</linearGradient>
<linearGradient id="paint12_linear_69_4432" x1="198.551" y1="80.1063" x2="198.551" y2="132.504" gradientUnits="userSpaceOnUse">
<stop stop-color="#FF6C6C"/>
<stop offset="0.28" stop-color="#F85758"/>
<stop offset="0.85" stop-color="#E62425"/>
<stop offset="1" stop-color="#E21617"/>
</linearGradient>
<linearGradient id="paint13_linear_69_4432" x1="204.206" y1="80.1064" x2="204.206" y2="132.504" gradientUnits="userSpaceOnUse">
<stop stop-color="#FF6C6C"/>
<stop offset="0.28" stop-color="#F85758"/>
<stop offset="0.85" stop-color="#E62425"/>
<stop offset="1" stop-color="#E21617"/>
</linearGradient>
<linearGradient id="paint14_linear_69_4432" x1="209.775" y1="80.1063" x2="209.775" y2="132.504" gradientUnits="userSpaceOnUse">
<stop stop-color="#FF6C6C"/>
<stop offset="0.28" stop-color="#F85758"/>
<stop offset="0.85" stop-color="#E62425"/>
<stop offset="1" stop-color="#E21617"/>
</linearGradient>
<linearGradient id="paint15_linear_69_4432" x1="215.904" y1="80.1063" x2="215.904" y2="132.504" gradientUnits="userSpaceOnUse">
<stop stop-color="#FF6C6C"/>
<stop offset="0.28" stop-color="#F85758"/>
<stop offset="0.85" stop-color="#E62425"/>
<stop offset="1" stop-color="#E21617"/>
</linearGradient>
<linearGradient id="paint16_linear_69_4432" x1="221.56" y1="80.1064" x2="221.56" y2="132.504" gradientUnits="userSpaceOnUse">
<stop stop-color="#FF6C6C"/>
<stop offset="0.28" stop-color="#F85758"/>
<stop offset="0.85" stop-color="#E62425"/>
<stop offset="1" stop-color="#E21617"/>
</linearGradient>
<linearGradient id="paint17_linear_69_4432" x1="229.825" y1="8.60477e-06" x2="229.825" y2="8.60477e-06" gradientUnits="userSpaceOnUse">
<stop stop-color="#FF6C6C"/>
<stop offset="0.28" stop-color="#F85758"/>
<stop offset="0.85" stop-color="#E62425"/>
<stop offset="1" stop-color="#E21617"/>
</linearGradient>
<linearGradient id="paint18_linear_69_4432" x1="235.025" y1="80.1064" x2="235.025" y2="132.504" gradientUnits="userSpaceOnUse">
<stop stop-color="#FF6C6C"/>
<stop offset="0.28" stop-color="#F85758"/>
<stop offset="0.85" stop-color="#E62425"/>
<stop offset="1" stop-color="#E21617"/>
</linearGradient>
<linearGradient id="paint19_linear_69_4432" x1="239.589" y1="80.1064" x2="239.589" y2="132.504" gradientUnits="userSpaceOnUse">
<stop stop-color="#FF6C6C"/>
<stop offset="0.28" stop-color="#F85758"/>
<stop offset="0.85" stop-color="#E62425"/>
<stop offset="1" stop-color="#E21617"/>
</linearGradient>
<linearGradient id="paint20_linear_69_4432" x1="245.127" y1="80.1063" x2="245.127" y2="132.504" gradientUnits="userSpaceOnUse">
<stop stop-color="#FF6C6C"/>
<stop offset="0.28" stop-color="#F85758"/>
<stop offset="0.85" stop-color="#E62425"/>
<stop offset="1" stop-color="#E21617"/>
</linearGradient>
<linearGradient id="paint21_linear_69_4432" x1="251.048" y1="80.1064" x2="251.048" y2="132.504" gradientUnits="userSpaceOnUse">
<stop stop-color="#FF6C6C"/>
<stop offset="0.28" stop-color="#F85758"/>
<stop offset="0.85" stop-color="#E62425"/>
<stop offset="1" stop-color="#E21617"/>
</linearGradient>
<linearGradient id="paint22_linear_69_4432" x1="163.566" y1="80.1063" x2="163.566" y2="132.504" gradientUnits="userSpaceOnUse">
<stop stop-color="#FF6C6C"/>
<stop offset="0.28" stop-color="#F85758"/>
<stop offset="0.85" stop-color="#E62425"/>
<stop offset="1" stop-color="#E21617"/>
</linearGradient>
<linearGradient id="paint23_linear_69_4432" x1="198.389" y1="80.1063" x2="198.389" y2="132.504" gradientUnits="userSpaceOnUse">
<stop stop-color="#FF6C6C"/>
<stop offset="0.28" stop-color="#F85758"/>
<stop offset="0.85" stop-color="#E62425"/>
<stop offset="1" stop-color="#E21617"/>
</linearGradient>
<linearGradient id="paint24_linear_69_4432" x1="232.932" y1="80.1063" x2="232.932" y2="132.504" gradientUnits="userSpaceOnUse">
<stop stop-color="#FF6C6C"/>
<stop offset="0.28" stop-color="#F85758"/>
<stop offset="0.85" stop-color="#E62425"/>
<stop offset="1" stop-color="#E21617"/>
</linearGradient>
<linearGradient id="paint25_linear_69_4432" x1="95.4943" y1="64.1841" x2="95.4943" y2="143.399" gradientUnits="userSpaceOnUse">
<stop stop-color="#FF6C6C"/>
<stop offset="0.28" stop-color="#F85758"/>
<stop offset="0.85" stop-color="#E62425"/>
<stop offset="1" stop-color="#E21617"/>
</linearGradient>
<linearGradient id="paint26_linear_69_4432" x1="95.4963" y1="64.1841" x2="95.4963" y2="143.399" gradientUnits="userSpaceOnUse">
<stop stop-color="#FF6C6C"/>
<stop offset="0.28" stop-color="#F85758"/>
<stop offset="0.85" stop-color="#E62425"/>
<stop offset="1" stop-color="#E21617"/>
</linearGradient>
<linearGradient id="paint27_linear_69_4432" x1="63.6203" y1="64.1841" x2="63.6203" y2="143.399" gradientUnits="userSpaceOnUse">
<stop stop-color="#FF6C6C"/>
<stop offset="0.28" stop-color="#F85758"/>
<stop offset="0.85" stop-color="#E62425"/>
<stop offset="1" stop-color="#E21617"/>
</linearGradient>
<linearGradient id="paint28_linear_69_4432" x1="69.4211" y1="64.1841" x2="69.4211" y2="143.399" gradientUnits="userSpaceOnUse">
<stop stop-color="#FF6C6C"/>
<stop offset="0.28" stop-color="#F85758"/>
<stop offset="0.85" stop-color="#E62425"/>
<stop offset="1" stop-color="#E21617"/>
</linearGradient>
<linearGradient id="paint29_linear_69_4432" x1="57.8195" y1="64.1821" x2="57.8195" y2="143.399" gradientUnits="userSpaceOnUse">
<stop stop-color="#FF6C6C"/>
<stop offset="0.28" stop-color="#F85758"/>
<stop offset="0.85" stop-color="#E62425"/>
<stop offset="1" stop-color="#E21617"/>
</linearGradient>
<linearGradient id="paint30_linear_69_4432" x1="63.6189" y1="64.1842" x2="63.6189" y2="143.399" gradientUnits="userSpaceOnUse">
<stop stop-color="#FF6C6C"/>
<stop offset="0.28" stop-color="#F85758"/>
<stop offset="0.85" stop-color="#E62425"/>
<stop offset="1" stop-color="#E21617"/>
</linearGradient>
<linearGradient id="paint31_linear_69_4432" x1="95.5002" y1="64.1843" x2="95.5002" y2="143.399" gradientUnits="userSpaceOnUse">
<stop stop-color="#FF6C6C"/>
<stop offset="0.28" stop-color="#F85758"/>
<stop offset="0.85" stop-color="#E62425"/>
<stop offset="1" stop-color="#E21617"/>
</linearGradient>
<linearGradient id="paint32_linear_69_4432" x1="95.5022" y1="64.1847" x2="95.5022" y2="143.399" gradientUnits="userSpaceOnUse">
<stop stop-color="#FF6C6C"/>
<stop offset="0.28" stop-color="#F85758"/>
<stop offset="0.85" stop-color="#E62425"/>
<stop offset="1" stop-color="#E21617"/>
</linearGradient>
<linearGradient id="paint33_linear_69_4432" x1="63.6242" y1="64.1852" x2="63.6242" y2="143.399" gradientUnits="userSpaceOnUse">
<stop stop-color="#FF6C6C"/>
<stop offset="0.28" stop-color="#F85758"/>
<stop offset="0.85" stop-color="#E62425"/>
<stop offset="1" stop-color="#E21617"/>
</linearGradient>
<linearGradient id="paint34_linear_69_4432" x1="69.4269" y1="64.1821" x2="69.4269" y2="143.399" gradientUnits="userSpaceOnUse">
<stop stop-color="#FF6C6C"/>
<stop offset="0.28" stop-color="#F85758"/>
<stop offset="0.85" stop-color="#E62425"/>
<stop offset="1" stop-color="#E21617"/>
</linearGradient>
<linearGradient id="paint35_linear_69_4432" x1="57.8235" y1="64.1852" x2="57.8235" y2="143.399" gradientUnits="userSpaceOnUse">
<stop stop-color="#FF6C6C"/>
<stop offset="0.28" stop-color="#F85758"/>
<stop offset="0.85" stop-color="#E62425"/>
<stop offset="1" stop-color="#E21617"/>
</linearGradient>
<linearGradient id="paint36_linear_69_4432" x1="63.6229" y1="64.1841" x2="63.6229" y2="143.399" gradientUnits="userSpaceOnUse">
<stop stop-color="#FF6C6C"/>
<stop offset="0.28" stop-color="#F85758"/>
<stop offset="0.85" stop-color="#E62425"/>
<stop offset="1" stop-color="#E21617"/>
</linearGradient>
<linearGradient id="paint37_linear_69_4432" x1="95.5041" y1="64.1843" x2="95.5041" y2="143.399" gradientUnits="userSpaceOnUse">
<stop stop-color="#FF6C6C"/>
<stop offset="0.28" stop-color="#F85758"/>
<stop offset="0.85" stop-color="#E62425"/>
<stop offset="1" stop-color="#E21617"/>
</linearGradient>
<linearGradient id="paint38_linear_69_4432" x1="95.5061" y1="64.1821" x2="95.5061" y2="143.401" gradientUnits="userSpaceOnUse">
<stop stop-color="#FF6C6C"/>
<stop offset="0.28" stop-color="#F85758"/>
<stop offset="0.85" stop-color="#E62425"/>
<stop offset="1" stop-color="#E21617"/>
</linearGradient>
<linearGradient id="paint39_linear_69_4432" x1="63.6301" y1="64.1839" x2="63.6301" y2="143.399" gradientUnits="userSpaceOnUse">
<stop stop-color="#FF6C6C"/>
<stop offset="0.28" stop-color="#F85758"/>
<stop offset="0.85" stop-color="#E62425"/>
<stop offset="1" stop-color="#E21617"/>
</linearGradient>
<linearGradient id="paint40_linear_69_4432" x1="69.4308" y1="64.1859" x2="69.4308" y2="143.399" gradientUnits="userSpaceOnUse">
<stop stop-color="#FF6C6C"/>
<stop offset="0.28" stop-color="#F85758"/>
<stop offset="0.85" stop-color="#E62425"/>
<stop offset="1" stop-color="#E21617"/>
</linearGradient>
<linearGradient id="paint41_linear_69_4432" x1="57.8293" y1="64.1859" x2="57.8293" y2="143.399" gradientUnits="userSpaceOnUse">
<stop stop-color="#FF6C6C"/>
<stop offset="0.28" stop-color="#F85758"/>
<stop offset="0.85" stop-color="#E62425"/>
<stop offset="1" stop-color="#E21617"/>
</linearGradient>
<linearGradient id="paint42_linear_69_4432" x1="63.6287" y1="64.1842" x2="63.6287" y2="143.399" gradientUnits="userSpaceOnUse">
<stop stop-color="#FF6C6C"/>
<stop offset="0.28" stop-color="#F85758"/>
<stop offset="0.85" stop-color="#E62425"/>
<stop offset="1" stop-color="#E21617"/>
</linearGradient>
<linearGradient id="paint43_linear_69_4432" x1="95.51" y1="64.1841" x2="95.51" y2="143.399" gradientUnits="userSpaceOnUse">
<stop stop-color="#FF6C6C"/>
<stop offset="0.28" stop-color="#F85758"/>
<stop offset="0.85" stop-color="#E62425"/>
<stop offset="1" stop-color="#E21617"/>
</linearGradient>
<linearGradient id="paint44_linear_69_4432" x1="95.512" y1="64.1844" x2="95.512" y2="143.399" gradientUnits="userSpaceOnUse">
<stop stop-color="#FF6C6C"/>
<stop offset="0.28" stop-color="#F85758"/>
<stop offset="0.85" stop-color="#E62425"/>
<stop offset="1" stop-color="#E21617"/>
</linearGradient>
<linearGradient id="paint45_linear_69_4432" x1="63.634" y1="64.1839" x2="63.634" y2="143.399" gradientUnits="userSpaceOnUse">
<stop stop-color="#FF6C6C"/>
<stop offset="0.28" stop-color="#F85758"/>
<stop offset="0.85" stop-color="#E62425"/>
<stop offset="1" stop-color="#E21617"/>
</linearGradient>
<linearGradient id="paint46_linear_69_4432" x1="69.4367" y1="64.1839" x2="69.4367" y2="143.399" gradientUnits="userSpaceOnUse">
<stop stop-color="#FF6C6C"/>
<stop offset="0.28" stop-color="#F85758"/>
<stop offset="0.85" stop-color="#E62425"/>
<stop offset="1" stop-color="#E21617"/>
</linearGradient>
<linearGradient id="paint47_linear_69_4432" x1="57.8332" y1="64.1819" x2="57.8332" y2="143.401" gradientUnits="userSpaceOnUse">
<stop stop-color="#FF6C6C"/>
<stop offset="0.28" stop-color="#F85758"/>
<stop offset="0.85" stop-color="#E62425"/>
<stop offset="1" stop-color="#E21617"/>
</linearGradient>
<linearGradient id="paint48_linear_69_4432" x1="63.6326" y1="64.1842" x2="63.6326" y2="143.399" gradientUnits="userSpaceOnUse">
<stop stop-color="#FF6C6C"/>
<stop offset="0.28" stop-color="#F85758"/>
<stop offset="0.85" stop-color="#E62425"/>
<stop offset="1" stop-color="#E21617"/>
</linearGradient>
<linearGradient id="paint49_linear_69_4432" x1="95.5139" y1="64.1842" x2="95.5139" y2="143.399" gradientUnits="userSpaceOnUse">
<stop stop-color="#FF6C6C"/>
<stop offset="0.28" stop-color="#F85758"/>
<stop offset="0.85" stop-color="#E62425"/>
<stop offset="1" stop-color="#E21617"/>
</linearGradient>
<linearGradient id="paint50_linear_69_4432" x1="95.5158" y1="64.1844" x2="95.5158" y2="143.399" gradientUnits="userSpaceOnUse">
<stop stop-color="#FF6C6C"/>
<stop offset="0.28" stop-color="#F85758"/>
<stop offset="0.85" stop-color="#E62425"/>
<stop offset="1" stop-color="#E21617"/>
</linearGradient>
<linearGradient id="paint51_linear_69_4432" x1="63.6399" y1="64.1838" x2="63.6399" y2="143.399" gradientUnits="userSpaceOnUse">
<stop stop-color="#FF6C6C"/>
<stop offset="0.28" stop-color="#F85758"/>
<stop offset="0.85" stop-color="#E62425"/>
<stop offset="1" stop-color="#E21617"/>
</linearGradient>
<linearGradient id="paint52_linear_69_4432" x1="69.4406" y1="64.184" x2="69.4406" y2="143.399" gradientUnits="userSpaceOnUse">
<stop stop-color="#FF6C6C"/>
<stop offset="0.28" stop-color="#F85758"/>
<stop offset="0.85" stop-color="#E62425"/>
<stop offset="1" stop-color="#E21617"/>
</linearGradient>
<linearGradient id="paint53_linear_69_4432" x1="57.8391" y1="64.1844" x2="57.8391" y2="143.399" gradientUnits="userSpaceOnUse">
<stop stop-color="#FF6C6C"/>
<stop offset="0.28" stop-color="#F85758"/>
<stop offset="0.85" stop-color="#E62425"/>
<stop offset="1" stop-color="#E21617"/>
</linearGradient>
<linearGradient id="paint54_linear_69_4432" x1="63.6365" y1="64.1842" x2="63.6365" y2="143.399" gradientUnits="userSpaceOnUse">
<stop stop-color="#FF6C6C"/>
<stop offset="0.28" stop-color="#F85758"/>
<stop offset="0.85" stop-color="#E62425"/>
<stop offset="1" stop-color="#E21617"/>
</linearGradient>
<linearGradient id="paint55_linear_69_4432" x1="95.5198" y1="64.1842" x2="95.5198" y2="143.399" gradientUnits="userSpaceOnUse">
<stop stop-color="#FF6C6C"/>
<stop offset="0.28" stop-color="#F85758"/>
<stop offset="0.85" stop-color="#E62425"/>
<stop offset="1" stop-color="#E21617"/>
</linearGradient>
<linearGradient id="paint56_linear_69_4432" x1="95.5217" y1="64.1821" x2="95.5217" y2="143.403" gradientUnits="userSpaceOnUse">
<stop stop-color="#FF6C6C"/>
<stop offset="0.28" stop-color="#F85758"/>
<stop offset="0.85" stop-color="#E62425"/>
<stop offset="1" stop-color="#E21617"/>
</linearGradient>
<linearGradient id="paint57_linear_69_4432" x1="63.6437" y1="64.1841" x2="63.6437" y2="143.399" gradientUnits="userSpaceOnUse">
<stop stop-color="#FF6C6C"/>
<stop offset="0.28" stop-color="#F85758"/>
<stop offset="0.85" stop-color="#E62425"/>
<stop offset="1" stop-color="#E21617"/>
</linearGradient>
<linearGradient id="paint58_linear_69_4432" x1="69.4465" y1="64.1841" x2="69.4465" y2="143.399" gradientUnits="userSpaceOnUse">
<stop stop-color="#FF6C6C"/>
<stop offset="0.28" stop-color="#F85758"/>
<stop offset="0.85" stop-color="#E62425"/>
<stop offset="1" stop-color="#E21617"/>
</linearGradient>
<linearGradient id="paint59_linear_69_4432" x1="57.843" y1="64.1841" x2="57.843" y2="143.399" gradientUnits="userSpaceOnUse">
<stop stop-color="#FF6C6C"/>
<stop offset="0.28" stop-color="#F85758"/>
<stop offset="0.85" stop-color="#E62425"/>
<stop offset="1" stop-color="#E21617"/>
</linearGradient>
<linearGradient id="paint60_linear_69_4432" x1="63.6424" y1="64.1842" x2="63.6424" y2="143.399" gradientUnits="userSpaceOnUse">
<stop stop-color="#FF6C6C"/>
<stop offset="0.28" stop-color="#F85758"/>
<stop offset="0.85" stop-color="#E62425"/>
<stop offset="1" stop-color="#E21617"/>
</linearGradient>
<linearGradient id="paint61_linear_69_4432" x1="95.5236" y1="64.1841" x2="95.5236" y2="143.399" gradientUnits="userSpaceOnUse">
<stop stop-color="#FF6C6C"/>
<stop offset="0.28" stop-color="#F85758"/>
<stop offset="0.85" stop-color="#E62425"/>
<stop offset="1" stop-color="#E21617"/>
</linearGradient>
<linearGradient id="paint62_linear_69_4432" x1="95.5256" y1="64.1842" x2="95.5256" y2="143.399" gradientUnits="userSpaceOnUse">
<stop stop-color="#FF6C6C"/>
<stop offset="0.28" stop-color="#F85758"/>
<stop offset="0.85" stop-color="#E62425"/>
<stop offset="1" stop-color="#E21617"/>
</linearGradient>
<linearGradient id="paint63_linear_69_4432" x1="63.6496" y1="64.1842" x2="63.6496" y2="143.399" gradientUnits="userSpaceOnUse">
<stop stop-color="#FF6C6C"/>
<stop offset="0.28" stop-color="#F85758"/>
<stop offset="0.85" stop-color="#E62425"/>
<stop offset="1" stop-color="#E21617"/>
</linearGradient>
<linearGradient id="paint64_linear_69_4432" x1="69.4504" y1="64.1841" x2="69.4504" y2="143.401" gradientUnits="userSpaceOnUse">
<stop stop-color="#FF6C6C"/>
<stop offset="0.28" stop-color="#F85758"/>
<stop offset="0.85" stop-color="#E62425"/>
<stop offset="1" stop-color="#E21617"/>
</linearGradient>
<linearGradient id="paint65_linear_69_4432" x1="57.8488" y1="64.1841" x2="57.8488" y2="143.399" gradientUnits="userSpaceOnUse">
<stop stop-color="#FF6C6C"/>
<stop offset="0.28" stop-color="#F85758"/>
<stop offset="0.85" stop-color="#E62425"/>
<stop offset="1" stop-color="#E21617"/>
</linearGradient>
<linearGradient id="paint66_linear_69_4432" x1="63.6463" y1="64.1842" x2="63.6463" y2="143.399" gradientUnits="userSpaceOnUse">
<stop stop-color="#FF6C6C"/>
<stop offset="0.28" stop-color="#F85758"/>
<stop offset="0.85" stop-color="#E62425"/>
<stop offset="1" stop-color="#E21617"/>
</linearGradient>
<linearGradient id="paint67_linear_69_4432" x1="95.5295" y1="64.1841" x2="95.5295" y2="143.399" gradientUnits="userSpaceOnUse">
<stop stop-color="#FF6C6C"/>
<stop offset="0.28" stop-color="#F85758"/>
<stop offset="0.85" stop-color="#E62425"/>
<stop offset="1" stop-color="#E21617"/>
</linearGradient>
<linearGradient id="paint68_linear_69_4432" x1="95.5315" y1="64.1842" x2="95.5315" y2="143.397" gradientUnits="userSpaceOnUse">
<stop stop-color="#FF6C6C"/>
<stop offset="0.28" stop-color="#F85758"/>
<stop offset="0.85" stop-color="#E62425"/>
<stop offset="1" stop-color="#E21617"/>
</linearGradient>
<linearGradient id="paint69_linear_69_4432" x1="63.6535" y1="64.1843" x2="63.6535" y2="143.398" gradientUnits="userSpaceOnUse">
<stop stop-color="#FF6C6C"/>
<stop offset="0.28" stop-color="#F85758"/>
<stop offset="0.85" stop-color="#E62425"/>
<stop offset="1" stop-color="#E21617"/>
</linearGradient>
<linearGradient id="paint70_linear_69_4432" x1="69.4562" y1="64.1841" x2="69.4562" y2="143.399" gradientUnits="userSpaceOnUse">
<stop stop-color="#FF6C6C"/>
<stop offset="0.28" stop-color="#F85758"/>
<stop offset="0.85" stop-color="#E62425"/>
<stop offset="1" stop-color="#E21617"/>
</linearGradient>
<linearGradient id="paint71_linear_69_4432" x1="57.8528" y1="64.1841" x2="57.8528" y2="143.399" gradientUnits="userSpaceOnUse">
<stop stop-color="#FF6C6C"/>
<stop offset="0.28" stop-color="#F85758"/>
<stop offset="0.85" stop-color="#E62425"/>
<stop offset="1" stop-color="#E21617"/>
</linearGradient>
<linearGradient id="paint72_linear_69_4432" x1="63.6521" y1="64.1842" x2="63.6521" y2="143.399" gradientUnits="userSpaceOnUse">
<stop stop-color="#FF6C6C"/>
<stop offset="0.28" stop-color="#F85758"/>
<stop offset="0.85" stop-color="#E62425"/>
<stop offset="1" stop-color="#E21617"/>
</linearGradient>
<linearGradient id="paint73_linear_69_4432" x1="95.5334" y1="64.1842" x2="95.5334" y2="143.399" gradientUnits="userSpaceOnUse">
<stop stop-color="#FF6C6C"/>
<stop offset="0.28" stop-color="#F85758"/>
<stop offset="0.85" stop-color="#E62425"/>
<stop offset="1" stop-color="#E21617"/>
</linearGradient>
<linearGradient id="paint74_linear_69_4432" x1="95.5354" y1="64.1842" x2="95.5354" y2="143.399" gradientUnits="userSpaceOnUse">
<stop stop-color="#FF6C6C"/>
<stop offset="0.28" stop-color="#F85758"/>
<stop offset="0.85" stop-color="#E62425"/>
<stop offset="1" stop-color="#E21617"/>
</linearGradient>
<linearGradient id="paint75_linear_69_4432" x1="63.6594" y1="64.1842" x2="63.6594" y2="143.401" gradientUnits="userSpaceOnUse">
<stop stop-color="#FF6C6C"/>
<stop offset="0.28" stop-color="#F85758"/>
<stop offset="0.85" stop-color="#E62425"/>
<stop offset="1" stop-color="#E21617"/>
</linearGradient>
<linearGradient id="paint76_linear_69_4432" x1="69.4601" y1="64.1842" x2="69.4601" y2="143.398" gradientUnits="userSpaceOnUse">
<stop stop-color="#FF6C6C"/>
<stop offset="0.28" stop-color="#F85758"/>
<stop offset="0.85" stop-color="#E62425"/>
<stop offset="1" stop-color="#E21617"/>
</linearGradient>
<linearGradient id="paint77_linear_69_4432" x1="57.8586" y1="64.1842" x2="57.8586" y2="143.401" gradientUnits="userSpaceOnUse">
<stop stop-color="#FF6C6C"/>
<stop offset="0.28" stop-color="#F85758"/>
<stop offset="0.85" stop-color="#E62425"/>
<stop offset="1" stop-color="#E21617"/>
</linearGradient>
<linearGradient id="paint78_linear_69_4432" x1="63.656" y1="64.1842" x2="63.656" y2="143.399" gradientUnits="userSpaceOnUse">
<stop stop-color="#FF6C6C"/>
<stop offset="0.28" stop-color="#F85758"/>
<stop offset="0.85" stop-color="#E62425"/>
<stop offset="1" stop-color="#E21617"/>
</linearGradient>
<linearGradient id="paint79_linear_69_4432" x1="111.69" y1="79.6386" x2="111.69" y2="128.657" gradientUnits="userSpaceOnUse">
<stop stop-color="#FFD03F"/>
<stop offset="0.2" stop-color="#FCC939"/>
<stop offset="0.46" stop-color="#F5B82A"/>
<stop offset="0.77" stop-color="#EA9C12"/>
<stop offset="0.9" stop-color="#E58E06"/>
<stop offset="1" stop-color="#DF8800"/>
</linearGradient>
<linearGradient id="paint80_linear_69_4432" x1="111.466" y1="83.0997" x2="111.723" y2="125.062" gradientUnits="userSpaceOnUse">
<stop stop-color="#DF8800"/>
<stop offset="0.1" stop-color="#E58E06"/>
<stop offset="0.23" stop-color="#EA9C12"/>
<stop offset="0.54" stop-color="#F5B82A"/>
<stop offset="0.8" stop-color="#FCC939"/>
<stop offset="1" stop-color="#FFD03F"/>
</linearGradient>
<clipPath id="clip0_69_4432">
<rect width="299" height="245" fill="white" transform="translate(0.5)"/>
</clipPath>
</defs>
</svg>
