<svg width="31" height="31" viewBox="0 0 31 31" fill="none" xmlns="http://www.w3.org/2000/svg">
<path fill-rule="evenodd" clip-rule="evenodd" d="M27.5706 11.2125C27.3269 10.3761 26.7944 9.73648 26.0331 9.36088C24.5631 8.63488 22.8119 9.11248 22.1256 9.35008C20.7681 9.82048 19.4556 10.3737 18.0881 10.9041C16.5594 9.54568 15.0194 8.24728 13.5856 7.04728C12.5594 6.18568 11.5031 5.87128 10.4406 6.11488C9.86563 6.24088 9.32438 6.43888 8.80063 6.63208C8.55563 6.72208 8.30813 6.81208 8.05188 6.89728C7.80688 6.97888 7.60938 7.15288 7.50313 7.37848C7.39688 7.60528 7.39188 7.86208 7.49188 8.09128L10.0781 14.1141C9.18188 14.4753 8.08063 14.9253 7.04438 15.3477L5.50063 15.9753C5.34688 15.6189 5.18063 15.2349 5.11813 15.0885C4.92313 14.6277 4.37438 14.4069 3.89688 14.5953C3.41688 14.7825 3.18688 15.3081 3.38188 15.7677C3.49563 16.0341 3.94438 17.0733 4.06188 17.3409C4.08313 17.3889 4.10438 17.4357 4.12563 17.4825C4.12938 17.4897 4.13188 17.4969 4.13563 17.5041C4.14563 17.5281 4.15688 17.5497 4.16813 17.5725C5.28188 19.8981 7.12813 21.1329 9.36188 21.1329C10.2056 21.1329 11.1056 20.9553 12.0431 20.5953C16.4844 18.8805 20.9381 17.0853 24.8756 15.4989C26.5731 14.8017 28.1419 13.1625 27.5706 11.2125Z" fill="white"/>
<path fill-rule="evenodd" clip-rule="evenodd" d="M24.3031 25.2559H6.69189C6.17439 25.2559 5.75439 25.6591 5.75439 26.1559C5.75439 26.6527 6.17439 27.0559 6.69189 27.0559H24.3031C24.8206 27.0559 25.2406 26.6527 25.2406 26.1559C25.2406 25.6591 24.8206 25.2559 24.3031 25.2559Z" fill="white"/>
</svg>
