<svg width="31" height="31" viewBox="0 0 31 31" fill="none" xmlns="http://www.w3.org/2000/svg">
<g clip-path="url(#clip0_94_379)">
<path fill-rule="evenodd" clip-rule="evenodd" d="M27.7781 18.4606C27.3894 16.9439 26.1581 15.7677 24.5544 15.3903C24.0481 15.2796 23.4919 15.2796 22.3856 15.2796H9.66811C8.56186 15.2796 8.00686 15.2796 7.48936 15.3927C5.89686 15.7677 4.66434 16.9439 4.27559 18.4606C4.15186 18.9463 4.15186 19.476 4.15186 20.5296C4.15186 21.0963 4.15186 21.4094 4.22561 21.7082C4.45936 22.6153 5.19934 23.3165 6.14186 23.5344C6.28684 23.5701 6.43434 23.5891 6.60811 23.5998V24.8748C6.60811 25.3677 7.02809 25.7677 7.54559 25.7677C8.06434 25.7677 8.48309 25.3677 8.48309 24.8748V23.6129H23.5719V24.8748C23.5719 25.3677 23.9919 25.7677 24.5094 25.7677C25.0269 25.7677 25.4469 25.3677 25.4469 24.8748V23.5998C25.6181 23.5891 25.7606 23.5725 25.8981 23.5379C26.8556 23.3153 27.5956 22.6141 27.8269 21.7058C27.9019 21.4106 27.9019 21.0975 27.9019 20.5296C27.9019 19.476 27.9019 18.9463 27.7781 18.4606Z" fill="#57525B"/>
<path fill-rule="evenodd" clip-rule="evenodd" d="M7.54541 14.0886H24.5091C24.8541 14.0886 25.1341 13.8219 25.1341 13.4934V9.8267C25.1341 9.05408 25.1341 8.62908 24.9854 8.23146C24.7329 7.56242 24.1829 7.04099 23.4829 6.80289C23.0716 6.66003 22.6491 6.66003 21.8091 6.66003H10.2454C9.40416 6.66003 8.98166 6.66003 8.57416 6.8017C7.87041 7.04099 7.32166 7.56242 7.06541 8.23622C6.92041 8.63027 6.92041 9.05408 6.92041 9.8267V13.4934C6.92041 13.8219 7.20041 14.0886 7.54541 14.0886Z" fill="#57525B"/>
</g>
<defs>
<clipPath id="clip0_94_379">
<rect width="30" height="30" fill="white" transform="translate(0.5 0.5)"/>
</clipPath>
</defs>
</svg>
