<svg width="20" height="25" viewBox="0 0 20 25" fill="none" xmlns="http://www.w3.org/2000/svg">
<path fill-rule="evenodd" clip-rule="evenodd" d="M15.1963 17.6453C15.1963 18.1421 14.7763 18.5453 14.2588 18.5453C13.7413 18.5453 13.3213 18.1421 13.3213 17.6453V11.4293C13.3213 10.9325 13.7413 10.5293 14.2588 10.5293C14.7763 10.5293 15.1963 10.9325 15.1963 11.4293V17.6453ZM12.855 6.58134H7.145V3.70134C7.145 3.11934 7.63752 2.64534 8.24377 2.64534H11.755C12.3613 2.64534 12.855 3.11934 12.855 3.70134V6.58134ZM10.9388 17.6453C10.9388 18.1421 10.5188 18.5453 10.0013 18.5453C9.48377 18.5453 9.06377 18.1421 9.06377 17.6453V11.4293C9.06377 10.9325 9.48377 10.5293 10.0013 10.5293C10.5188 10.5293 10.9388 10.9325 10.9388 11.4293V17.6453ZM6.68875 17.6453C6.68875 18.1421 6.26875 18.5453 5.75125 18.5453C5.23375 18.5453 4.81375 18.1421 4.81375 17.6453V11.4293C4.81375 10.9325 5.23375 10.5293 5.75125 10.5293C6.26875 10.5293 6.68875 10.9325 6.68875 11.4293V17.6453ZM14.73 6.61854V3.70134C14.73 2.12574 13.395 0.845337 11.755 0.845337H8.24377C6.60375 0.845337 5.27 2.12574 5.27 3.70134V6.61854C2.4 6.81174 0.625 8.68734 0.625 11.6453V17.2613C0.625 20.0669 2.21 21.9077 4.81125 22.2617V23.3453C4.81125 23.8421 5.23125 24.2453 5.74875 24.2453C6.26625 24.2453 6.68625 23.8421 6.68625 23.3453V22.3373H13.3188V23.3453C13.3188 23.8421 13.7388 24.2453 14.2563 24.2453C14.7738 24.2453 15.1938 23.8421 15.1938 23.3453V22.2617C17.7913 21.9077 19.3725 20.0705 19.3725 17.2721V11.6453C19.3725 8.68614 17.5988 6.81054 14.73 6.61854Z" fill="#57525B"/>
</svg>
