<svg xmlns="http://www.w3.org/2000/svg" width="88" height="88" viewBox="0 0 88 88" fill="none">
<rect width="88" height="88" rx="44" fill="#EA2124"/>
<path d="M26.7656 31.6854C24.8857 31.9085 22.4363 32.5221 21.3539 32.9683L19.4741 33.8607L21.4109 33.4703C25.0566 32.8009 31.5506 33.1356 34.6836 34.0838C37.247 34.9204 38.6141 35.9802 43.9688 41.3347C47.4436 44.7928 51.0324 47.9721 52.0007 48.4741C54.2793 49.5896 59.9758 50.8725 65.0456 51.3744C70.2293 51.9322 72.4509 52.8246 73.5902 54.9999C74.1029 56.0039 74.6726 56.6732 74.8434 56.5059C75.4131 55.8923 74.3308 52.7131 73.1345 51.5976C71.3686 49.98 69.9445 49.5338 63.4506 48.5856C54.849 47.3028 52.6274 46.0757 47.3866 39.7172C42.2029 33.4703 34.9115 30.6257 26.7656 31.6854Z" fill="white"/>
<path d="M72.678 35.3109C71.7096 36.7611 70.1715 37.9324 67.5512 39.1595C63.7915 41.0001 62.2535 42.506 61.5699 45.1833C61.3421 46.1873 61.456 46.6335 61.9687 46.6335C62.4244 46.6335 63.2788 46.8008 63.9624 46.9681C64.9878 47.247 65.2726 46.9124 65.8422 44.7371C66.4119 42.5618 66.9246 41.8925 69.8867 39.9403C72.5071 38.2113 73.3615 37.2631 73.8172 35.6456C74.159 34.53 74.3299 33.5261 74.216 33.4145C74.159 33.303 73.4185 34.1954 72.678 35.3109Z" fill="white"/>
<path d="M18.9047 35.9805C15.4868 36.9287 12.6386 38.2115 13.0374 38.5462C13.1513 38.6577 14.6324 38.3789 16.3413 37.9326C20.7845 36.7613 29.1013 36.7613 32.0635 37.9326C33.5445 38.5462 36.2219 40.6657 39.0701 43.566C45.1652 49.7572 46.9311 50.9843 50.292 51.5978C54.1656 52.3229 54.4504 51.8209 51.2035 50.2034C49.3236 49.311 46.5894 46.9126 42.8867 43.0083C38.2726 38.1557 36.9054 37.0402 34.2281 36.092C30.3545 34.6418 23.7467 34.5861 18.9047 35.9805Z" fill="white"/>
<path d="M70.2303 35.3669C70.0594 35.6458 68.6923 36.3151 67.2112 36.8171C61.2869 38.9366 60.0907 39.6059 58.4387 42.0043C56.6159 44.57 56.6159 45.1835 58.4957 45.6855C59.4071 45.9086 59.8059 45.6297 60.2616 44.57C61.3439 41.7254 63.1098 40.0521 66.6985 38.3788C70.1734 36.7613 71.4836 35.7573 70.8569 35.1438C70.686 34.9765 70.4012 35.088 70.2303 35.3669Z" fill="white"/>
<path d="M57.3573 39.0481C54.737 40.7772 53.142 42.5062 53.6547 43.2313C54.3382 44.4026 55.3636 43.7333 57.8131 40.7214C60.4334 37.4306 60.3764 37.0959 57.3573 39.0481Z" fill="white"/>
<path d="M22.1514 39.3259C19.0753 40.1067 19.3601 40.4972 22.8919 40.4972C28.8162 40.4972 30.2973 41.278 36.5634 47.525C41.6902 52.6564 42.6016 53.3257 45.5637 54.1624C47.8423 54.8317 49.5512 54.9432 50.9753 54.6643L53.083 54.2739L50.2348 53.8835C45.9055 53.2699 44.3105 52.2102 39.4686 46.6326C36.3355 43.0629 34.2848 41.1665 32.6328 40.4414C29.7846 39.2143 24.7718 38.7123 22.1514 39.3259Z" fill="white"/>
</svg>