 <svg
          width="71"
          height="29"
          viewBox="0 0 71 29"
          fill="none"
          xmlns="http://www.w3.org/2000/svg"
        >
          <path
            d="M15.5687 0.250515C13.4426 0.508215 10.6724 1.21689 9.44829 1.73229L7.32227 2.76309L9.51271 2.31211C13.6359 1.53901 20.9804 1.92556 24.5237 3.02079C27.4229 3.98716 28.9691 5.21124 35.025 11.396C38.9549 15.3904 43.0137 19.0626 44.1089 19.6424C46.6859 20.9309 53.1284 22.4127 58.8622 22.9925C64.7249 23.6368 67.2375 24.6676 68.526 27.1801C69.1058 28.3398 69.7501 29.1129 69.9433 28.9196C70.5876 28.2109 69.3635 24.5387 68.0106 23.2502C66.0134 21.3819 64.4028 20.8665 57.0583 19.7713C47.3302 18.2895 44.8176 16.8722 38.8905 9.52771C33.0278 2.31211 24.7814 -0.97356 15.5687 0.250515Z"
            fill="#EA2124"
          />
          <path
            d="M67.4951 4.43816C66.3999 6.11321 64.6604 7.46614 61.6968 8.88349C57.4448 11.0095 55.7053 12.749 54.9322 15.8414C54.6745 17.001 54.8034 17.5164 55.3832 17.5164C55.8986 17.5164 56.865 17.7097 57.6381 17.903C58.7977 18.2251 59.1198 17.8386 59.7641 15.326C60.4083 12.8134 60.9882 12.0403 64.3383 9.78543C67.3018 7.78826 68.2682 6.69304 68.7836 4.82471C69.1701 3.53621 69.3634 2.37656 69.2346 2.24771C69.1701 2.11887 68.3326 3.14966 67.4951 4.43816Z"
            fill="#EA2124"
          />
          <path
            d="M6.67804 5.2112C2.81254 6.30642 -0.408709 7.7882 0.0422662 8.17475C0.171116 8.3036 1.84617 7.98147 3.77891 7.46607C8.80406 6.11315 18.2101 6.11315 21.5602 7.46607C23.2353 8.17475 26.2632 10.6229 29.4845 13.973C36.3779 21.1242 38.3751 22.5415 42.1762 23.2502C46.5571 24.0877 46.8792 23.5079 43.207 21.6396C41.081 20.6088 37.9886 17.8385 33.8009 13.3287C28.5825 7.72377 27.0363 6.43527 24.0084 5.34005C19.6275 3.665 12.1542 3.60057 6.67804 5.2112Z"
            fill="#EA2124"
          />
          <path
            d="M64.7258 4.50257C64.5325 4.8247 62.9863 5.5978 61.3112 6.17762C54.6111 8.62577 53.2581 9.39887 51.3898 12.1691C49.3282 15.1327 49.3282 15.8414 51.4542 16.4212C52.485 16.6789 52.936 16.3568 53.4514 15.1327C54.6755 11.847 56.6726 9.91427 60.7314 7.98152C64.6613 6.11319 66.1431 4.95355 65.4344 4.24487C65.2412 4.0516 64.919 4.18045 64.7258 4.50257Z"
            fill="#EA2124"
          />
          <path
            d="M50.1653 8.75433C47.2018 10.7515 45.3979 12.7487 45.9777 13.5862C46.7508 14.9391 47.9105 14.166 50.6807 10.6871C53.6443 6.886 53.5799 6.49945 50.1653 8.75433Z"
            fill="#EA2124"
          />
          <path
            d="M10.3503 9.07644C6.87135 9.97839 7.19347 10.4294 11.1878 10.4294C17.888 10.4294 19.5631 11.3313 26.6498 18.5469C32.4481 24.474 33.4789 25.2471 36.829 26.2135C39.406 26.9866 41.3387 27.1154 42.9493 26.7933L45.333 26.3423L42.1118 25.8914C37.2155 25.1827 35.4116 23.9586 29.9355 17.5161C26.3921 13.3929 24.0728 11.2025 22.2045 10.3649C18.9832 8.94759 13.3138 8.36777 10.3503 9.07644Z"
            fill="#EA2124"
          />
        </svg>