<svg xmlns="http://www.w3.org/2000/svg" width="62" height="88" viewBox="0 0 62 88" fill="none">
<path fill-rule="evenodd" clip-rule="evenodd" d="M56.9271 48C60.1343 43.1186 62 37.2772 62 31C62 13.8792 48.1208 0 31 0C13.8792 0 0 13.8792 0 31C0 38.7177 2.82027 45.7767 7.48644 51.2026L30 87.5L57 48H56.9271Z" fill="#FFCACF"/>
<circle cx="31" cy="31" r="25" fill="#EA2124"/>
<path d="M20.9965 35C20.3898 35 19.9138 34.9113 19.5685 34.734C19.2231 34.5567 18.9711 34.272 18.8125 33.88C18.6538 33.4787 18.5605 32.928 18.5325 32.228L18.2805 25.788L19.3445 25.732L19.5965 32.228C19.6151 32.704 19.6571 33.0493 19.7225 33.264C19.7971 33.4787 19.9278 33.628 20.1145 33.712C20.3011 33.7867 20.5951 33.824 20.9965 33.824H21.1365L21.2065 34.412L21.1365 35H20.9965ZM21.0032 33.824H21.1992C22.3939 33.8053 23.6446 33.6093 24.9512 33.236L28.2972 32.256L25.3992 30.758C25.1006 30.5993 24.8112 30.52 24.5312 30.52C24.2419 30.52 23.9712 30.5993 23.7192 30.758C23.4672 30.9167 23.2572 31.1407 23.0892 31.43L22.8372 31.878L21.9132 31.304L22.1792 30.828C22.4499 30.3427 22.7906 29.974 23.2012 29.722C23.6119 29.47 24.0506 29.344 24.5172 29.344C24.9932 29.344 25.4599 29.47 25.9172 29.722L29.5152 31.724L29.3472 33.068L28.7732 33.25C28.8759 33.4273 29.0159 33.5673 29.1932 33.67C29.3799 33.7727 29.5806 33.824 29.7952 33.824H30.6912L30.7612 34.412L30.6912 35H29.7952C29.3379 35 28.9179 34.8693 28.5352 34.608C28.1619 34.3467 27.8912 34.006 27.7232 33.586L25.2452 34.37C23.9479 34.79 22.5946 35 21.1852 35H21.0032V33.824ZM24.6432 36.176H26.0432V37.59H24.6432V36.176ZM30.5462 33.824H31.4282C32.3242 33.824 32.7442 33.474 32.6882 32.774V32.732L32.5342 31.01L33.5982 30.912L33.7522 32.634V32.662C33.7895 33.082 33.9015 33.3807 34.0882 33.558C34.2749 33.7353 34.5829 33.824 35.0122 33.824L35.0822 34.412L35.0122 35C34.2282 35 33.6402 34.7713 33.2482 34.314C32.8189 34.7713 32.2122 35 31.4282 35H30.5462V33.824ZM31.7222 28.056H33.1222V29.456H31.7222V28.056ZM34.8665 33.824H36.9105C37.9185 33.824 38.4225 33.446 38.4225 32.69C38.4225 32.4847 38.3899 32.2653 38.3245 32.032L37.7785 29.946L38.8005 29.652L39.3745 31.794C39.4585 32.13 39.5005 32.4333 39.5005 32.704C39.5005 33.432 39.2485 33.9967 38.7445 34.398C38.2499 34.7993 37.6385 35 36.9105 35H34.8665V33.824ZM34.3065 36.386H35.5525V37.646H34.3065V36.386ZM36.7845 36.386H38.0305V37.646H36.7845V36.386ZM41.3342 25.788L42.3982 25.732L42.7482 34.986L41.6982 35.042L41.3342 25.788Z" fill="white"/>
</svg>