<svg width="464" height="56" viewBox="0 0 464 56" fill="none" xmlns="http://www.w3.org/2000/svg">
<g opacity="0.75">
<path d="M167.101 0.768359C164.675 0.85438 162.787 2.91274 162.787 5.33157V5.66951C162.787 6.83079 161.843 7.77088 160.678 7.77088H141.373C139.989 7.77088 138.811 8.87277 138.832 10.2511C138.854 11.6623 137.713 12.8133 136.301 12.8133H132.223C130.282 12.8133 128.707 14.3822 128.707 16.3156V20.2378C128.707 21.4154 127.737 22.3146 126.555 22.3391C125.409 22.3617 124.488 23.2936 124.488 24.4405V31.4451C124.488 32.6227 125.459 33.5219 126.641 33.5464C127.786 33.569 128.707 34.5009 128.707 35.6478V39.57C128.707 41.5034 130.282 43.0722 132.223 43.0722H136.292C137.676 43.0722 138.854 44.1741 138.834 45.5525C138.811 46.9637 139.952 48.1147 141.365 48.1147H160.678C161.843 48.1147 162.787 49.0548 162.787 50.2161V50.554C162.787 52.9708 164.675 55.0312 167.101 55.1172C169.646 55.2073 171.739 53.1777 171.739 50.6605V5.22711C171.739 2.70998 169.646 0.680289 167.101 0.770406V0.768359Z" fill="#D8D7D6"/>
<path d="M0.247148 34.0319L0.185466 33.9008C-0.26893 32.9423 0.140232 31.7994 1.10043 31.3386C4.58344 29.6694 7.85674 28.0083 11.0396 26.3965C19.6669 22.0217 27.1161 18.2429 34.4523 16.5061C42.6849 14.5583 49.9223 15.4452 57.2296 19.2977C68.0015 24.9771 79.2483 25.9111 86.788 25.694C94.0028 25.4871 120.053 25.9029 126.46 25.9991C127.311 26.0114 128.054 26.5767 128.29 27.3919C128.65 28.633 127.708 29.868 126.413 29.8578C118.421 29.7882 94.2948 29.4707 87.0306 29.6919C78.9749 29.9377 66.9385 28.9464 55.3483 22.8348C41.408 15.4841 29.4334 21.5588 12.8613 29.9643C9.65787 31.5884 6.3599 33.2618 2.83782 34.9494C1.8694 35.4123 0.705657 35.0006 0.247148 34.0339V34.0319Z" fill="#D8D7D6"/>
</g>
<g opacity="0.75">
<path d="M294.599 0.768359C297.026 0.85438 298.913 2.91274 298.913 5.33157V5.66951C298.913 6.83079 299.857 7.77088 301.023 7.77088H320.327C321.711 7.77088 332.993 8.48977 332.993 16.3156V20.2378C332.993 21.4154 333.963 22.3146 335.145 22.3391C336.291 22.3617 337.212 23.2936 337.212 24.4405V31.4451C337.212 32.6227 336.241 33.5219 335.059 33.5464C333.914 33.569 332.993 34.5009 332.993 35.6478V39.57C332.993 47.4593 321.748 48.1147 320.338 48.1147H301.025C299.859 48.1147 298.915 49.0548 298.915 50.2161V50.554C298.915 52.9708 297.028 55.0312 294.601 55.1172C292.056 55.2073 289.963 53.1777 289.963 50.6605V5.22711C289.963 2.70998 292.056 0.680289 294.601 0.770406L294.599 0.768359Z" fill="#D8D7D6"/>
<path d="M275.199 14.1569H288.663V20.4938H275.199C274.079 20.4938 273.168 19.5865 273.168 18.4703V16.1805C273.168 15.0642 274.079 14.1569 275.199 14.1569Z" fill="#D8D7D6"/>
<path d="M275.199 35.3898H288.663V41.7267H275.199C274.079 41.7267 273.168 40.8193 273.168 39.7031V37.4133C273.168 36.2971 274.079 35.3898 275.199 35.3898Z" fill="#D8D7D6"/>
<path d="M393.891 45.9703C391.946 45.9703 390.024 45.8884 388.138 45.7205C381.133 45.0999 374.774 43.3733 369.751 40.7251C358.82 34.9617 348.304 32.2848 341.405 31.0519C336.631 30.1998 332.883 29.9008 330.775 29.7984C329.714 29.7472 328.878 28.8788 328.867 27.822C328.855 26.6689 329.815 25.7431 330.971 25.7984C333.197 25.907 337.053 26.2142 342 27.0928C349.208 28.3709 360.198 31.1624 371.63 37.1901C379.494 41.3375 394.056 44.1782 411.333 39.7154C424.383 36.3462 443.355 27.5475 460.375 4.81955C461.033 3.94295 462.273 3.74633 463.163 4.3874C464.072 5.04075 464.271 6.31058 463.601 7.20356C445.884 30.8675 426.02 40.0574 412.34 43.5884C406.234 45.1654 399.953 45.9703 393.889 45.9703H393.891Z" fill="#D8D7D6"/>
</g>
</svg>
