<svg width="48" height="48" viewBox="0 0 48 48" fill="none" xmlns="http://www.w3.org/2000/svg">
<rect width="48" height="48" rx="24" fill="#D8111F"/>
<path fill-rule="evenodd" clip-rule="evenodd" d="M24.4004 26.5156C19.4214 26.5156 17.1914 29.2696 17.1914 31.9996C17.1914 32.1986 17.2704 32.3896 17.4114 32.5306C17.5514 32.6706 17.7424 32.7496 17.9414 32.7496L30.8594 32.7316C31.2734 32.7306 31.6084 32.3946 31.6084 31.9816C31.6084 29.2606 29.3794 26.5156 24.4004 26.5156Z" fill="white"/>
<path fill-rule="evenodd" clip-rule="evenodd" d="M24.4004 25.001C27.0884 25.001 29.2754 22.813 29.2754 20.125C29.2754 17.437 27.0884 15.25 24.4004 15.25C21.7124 15.25 19.5254 17.437 19.5254 20.125C19.5254 22.813 21.7124 25.001 24.4004 25.001Z" fill="white"/>
</svg>
