<svg width="44" height="43" viewBox="0 0 44 43" fill="none" xmlns="http://www.w3.org/2000/svg">
<rect x="0.5" width="43" height="43" rx="21.5" fill="white"/>
<path d="M25.0391 26.5976C24.8402 26.5976 24.6494 26.5186 24.5087 26.3779C24.3681 26.2372 24.2891 26.0465 24.2891 25.8476V18.7266C24.2891 18.5277 24.3681 18.3369 24.5087 18.1962C24.6494 18.0556 24.8402 17.9766 25.0391 17.9766C25.238 17.9766 25.4287 18.0556 25.5694 18.1962C25.71 18.3369 25.7891 18.5277 25.7891 18.7266V25.8476C25.7891 26.0465 25.71 26.2372 25.5694 26.3779C25.4287 26.5186 25.238 26.5976 25.0391 26.5976Z" fill="#D8111F"/>
<path d="M18.2109 25.4569C18.012 25.4569 17.8213 25.3779 17.6806 25.2373C17.5399 25.0966 17.4609 24.9059 17.4609 24.7069V17.5859C17.4609 17.387 17.5399 17.1963 17.6806 17.0556C17.8213 16.9149 18.012 16.8359 18.2109 16.8359C18.4098 16.8359 18.6006 16.9149 18.7413 17.0556C18.8819 17.1963 18.9609 17.387 18.9609 17.5859V24.7069C18.9609 24.9059 18.8819 25.0966 18.7413 25.2373C18.6006 25.3779 18.4098 25.4569 18.2109 25.4569Z" fill="#D8111F"/>
<path d="M25.109 31.1381C24.8531 31.1379 24.5993 31.0929 24.359 31.005L18.627 28.9201C18.4587 28.858 18.2728 28.8641 18.109 28.9371L14.521 30.5371C14.248 30.6584 13.949 30.7095 13.6512 30.6859C13.3533 30.6623 13.0661 30.5646 12.8157 30.4017C12.5652 30.2389 12.3594 30.0161 12.2169 29.7535C12.0745 29.4909 11.9999 29.1968 12 28.8981V16.2291C12.0005 15.713 12.1504 15.2082 12.4314 14.7754C12.7125 14.3426 13.1128 14.0004 13.584 13.7901L17.499 12.0511C18.0176 11.8174 18.6072 11.7965 19.141 11.9931L24.873 14.0781C25.0412 14.1406 25.2272 14.1344 25.391 14.0611L28.979 12.4611C29.252 12.3398 29.551 12.2886 29.8488 12.3122C30.1466 12.3359 30.4338 12.4336 30.6843 12.5964C30.9348 12.7592 31.1406 12.9821 31.283 13.2447C31.4255 13.5073 31.5001 13.8013 31.5 14.1001V26.7651C31.4995 27.281 31.3497 27.7857 31.0686 28.2184C30.7875 28.651 30.3872 28.993 29.916 29.203L26.001 30.9421C25.7207 31.0694 25.4168 31.1362 25.109 31.1381ZM24.87 29.595C25.0389 29.6558 25.2247 29.6494 25.389 29.5771L29.305 27.837C29.5112 27.7451 29.6864 27.5954 29.8094 27.4061C29.9323 27.2167 29.9979 26.9958 29.998 26.7701V14.1051C29.9983 14.0561 29.9863 14.0079 29.9631 13.9648C29.9399 13.9217 29.9062 13.8852 29.8652 13.8585C29.8242 13.8318 29.7771 13.8159 29.7283 13.8121C29.6795 13.8084 29.6306 13.8169 29.586 13.8371L25.999 15.4311C25.4806 15.663 24.8922 15.6834 24.359 15.4881L18.625 13.4031C18.4565 13.3418 18.2708 13.3483 18.107 13.4211L14.191 15.1611C13.9848 15.2533 13.8096 15.4032 13.6867 15.5927C13.5637 15.7822 13.4982 16.0032 13.498 16.2291V28.893C13.4976 28.9419 13.5095 28.9901 13.5326 29.0332C13.5556 29.0763 13.5892 29.1129 13.6301 29.1397C13.671 29.1665 13.718 29.1826 13.7667 29.1865C13.8154 29.1904 13.8643 29.182 13.909 29.1621L17.497 27.5621C18.0157 27.3287 18.6053 27.3082 19.139 27.505L24.87 29.595Z" fill="#D8111F"/>
</svg>
